<svg width="152.000000" height="40.000000" viewBox="0 0 152 40" fill="none" xmlns="http://www.w3.org/2000/svg" xmlns:xlink="http://www.w3.org/1999/xlink">
	<desc>
			Created with Pixso.
	</desc>
	<defs/>
	<path id="Vector" d="M44.4 25.14C45.21 25.52 45.82 26.05 46.06 26.89C46.54 28.61 46.06 30.36 43.72 30.97C42.92 31.17 42.1 31.27 41.28 31.29C38.88 31.37 36.49 31.4 34.09 31.35C33.89 31.35 33.69 31.32 33.49 31.3C32.55 31.19 32.14 30.77 32.1 29.83C32.05 28.27 31.98 26.71 31.87 25.15C31.72 23.09 31.54 21.03 31.38 18.97C31.27 17.52 31.16 16.08 31.07 14.63C31.07 14.32 31.09 14.02 31.15 13.71C31.18 13.46 31.29 13.22 31.45 13.02C31.62 12.82 31.84 12.68 32.08 12.6C32.83 12.32 33.61 12.16 34.41 12.12C36.21 11.98 38.01 11.91 39.79 12.3C42.23 12.85 44.31 13.97 45.5 16.26C46.07 17.31 46.4 18.47 46.48 19.67C46.56 20.86 46.37 22.05 45.94 23.16C45.61 23.95 45.08 24.63 44.4 25.14ZM38.89 23.48L38.89 24.25C38.89 24.95 38.89 24.95 39.58 24.81C40.01 24.74 40.39 24.5 40.65 24.15C40.9 23.81 41.01 23.37 40.94 22.94C40.8 21.9 40.24 21.41 39.27 21.45C39.06 21.45 38.97 21.52 38.96 21.75C38.95 22.32 38.92 22.9 38.89 23.48ZM38.85 27.51L38.82 27.51C38.82 27.79 38.82 28.08 38.82 28.36C38.82 28.53 38.87 28.61 39.05 28.61C39.46 28.63 39.87 28.52 40.21 28.27C40.34 28.18 40.45 28.06 40.52 27.91C40.59 27.77 40.62 27.6 40.6 27.44C40.59 27.28 40.53 27.13 40.44 26.99C40.34 26.86 40.21 26.76 40.06 26.69C39.74 26.56 39.4 26.48 39.05 26.46C38.9 26.44 38.86 26.53 38.86 26.66C38.86 26.94 38.85 27.23 38.85 27.51Z" fill="#F77833" fill-opacity="1.000000" fill-rule="nonzero"/>
	<path id="Vector" d="M106.59 25.11C105.34 26.63 104.18 28.21 103.12 29.85C103.07 29.92 103.02 30 102.98 30.07C102.81 30.44 102.54 30.75 102.2 30.96C101.86 31.17 101.47 31.27 101.07 31.26C99.81 31.31 98.55 31.29 97.3 31.21C96.84 31.16 96.74 31.04 96.67 30.59C96.54 29.57 96.49 28.54 96.51 27.51C96.51 24.56 96.52 21.61 96.53 18.66C96.53 17 96.57 15.34 96.58 13.69C96.58 13.61 96.58 13.54 96.58 13.46C96.61 12.81 96.69 12.7 97.35 12.69C98.38 12.67 99.41 12.67 100.44 12.69C100.97 12.69 101.07 12.79 101.07 13.33C101.07 14.5 101.03 15.66 101.02 16.83C101.02 17.5 101.02 18.18 101.02 18.89C101.51 18.13 101.98 17.38 102.48 16.64C103.31 15.4 104.26 14.23 105.31 13.15C105.47 12.98 105.67 12.85 105.88 12.76C106.1 12.67 106.34 12.62 106.57 12.63C107.73 12.6 108.88 12.64 110.03 12.74C110.65 12.79 110.8 12.95 110.8 13.55C110.8 16.36 110.79 19.18 110.77 21.99C110.76 24.64 110.72 27.29 110.7 29.94C110.7 31.02 110.56 31.18 109.5 31.23C108.73 31.27 107.96 31.26 107.19 31.21C106.57 31.16 106.36 30.96 106.38 30.34C106.44 28.7 106.52 27.05 106.59 25.41C106.59 25.34 106.59 25.28 106.59 25.11Z" fill="#F77833" fill-opacity="1.000000" fill-rule="nonzero"/>
	<path id="Vector" d="M57.12 12.74C58.76 12.74 60.03 12.74 61.29 12.74C61.62 12.74 61.82 12.84 61.82 13.2C61.86 15.53 61.64 17.86 61.15 20.13C61.15 20.18 61.13 20.23 61.12 20.28C60.9 21.11 60.89 21.09 60.03 21.04C59.02 20.97 58.02 20.97 57.01 20.93C56.82 20.93 56.73 20.96 56.72 21.19C56.64 22.3 56.64 22.3 57.74 22.27C58.63 22.24 59.53 22.16 60.42 22.13C61.07 22.11 61.33 22.42 61.19 23.07C61.09 23.56 60.95 24.05 60.79 24.53C60.74 24.72 60.63 24.89 60.48 25.02C60.33 25.15 60.14 25.23 59.94 25.26C58.98 25.39 58.01 25.43 57.04 25.38C56.67 25.38 56.57 25.47 56.56 25.84C56.53 26.88 56.51 26.87 57.59 26.9C58.53 26.93 59.47 26.8 60.42 26.81C60.81 26.81 60.97 26.95 60.97 27.33C61 28.29 60.96 29.24 60.86 30.19C60.86 30.34 60.8 30.49 60.7 30.61C60.6 30.72 60.46 30.8 60.31 30.82C59.46 31.02 58.59 31.12 57.72 31.12C56.09 31.2 54.46 31.18 52.84 31.16C52.12 31.19 51.39 31.13 50.69 30.99C50.11 30.85 49.94 30.67 49.85 30.1C49.61 28.48 49.49 26.85 49.37 25.22C49.14 22.2 48.97 19.17 48.83 16.14C48.8 15.51 48.78 14.88 48.75 14.25C48.73 13.71 48.83 13.55 49.34 13.35C50.1 13.09 50.9 12.94 51.71 12.91C53.64 12.73 55.56 12.73 57.12 12.74Z" fill="#F77833" fill-opacity="1.000000" fill-rule="nonzero"/>
	<path id="Vector" d="M63.53 21.67C63.53 17.14 66.33 13.47 70.63 12.43C72.53 11.97 74.45 12.06 76.37 12.38C77.09 12.5 77.45 12.88 77.59 13.6C77.85 15.07 77.99 16.55 78.02 18.04C78.04 18.63 78.07 19.23 78.07 19.82C78.08 20.41 77.86 20.6 77.26 20.47C76.4 20.28 75.51 20.23 74.63 20.34C72.81 20.58 71.63 22.06 71.75 23.97C71.86 25.82 73.24 27.17 75.04 27.2C75.59 27.22 76.13 27.15 76.65 26.98C76.75 26.93 76.86 26.91 76.96 26.92C77.07 26.93 77.17 26.97 77.26 27.02C77.35 27.08 77.42 27.16 77.47 27.26C77.53 27.35 77.55 27.45 77.55 27.56C77.58 28.32 77.55 29.07 77.45 29.82C77.41 30.16 77.14 30.31 76.88 30.46C76.15 30.82 75.37 31.04 74.56 31.1C72.16 31.34 69.87 31.02 67.75 29.81C65.36 28.44 64.12 26.3 63.68 23.64C63.57 22.99 63.52 22.33 63.53 21.67Z" fill="#F77833" fill-opacity="1.000000" fill-rule="nonzero"/>
	<path id="Vector" d="M144.66 18.91C144.66 19.22 144.66 19.53 144.66 19.84C144.66 20.42 144.45 20.6 143.87 20.47C143.29 20.34 142.69 20.27 142.1 20.27C140.87 20.27 139.73 20.55 138.99 21.63C138.6 22.18 138.37 22.83 138.33 23.5C138.29 24.18 138.44 24.85 138.77 25.44C139.39 26.66 140.46 27.2 141.83 27.2C142.32 27.2 142.8 27.13 143.26 26.97C143.36 26.93 143.47 26.91 143.58 26.92C143.69 26.93 143.8 26.98 143.89 27.04C143.98 27.11 144.05 27.19 144.1 27.3C144.14 27.4 144.16 27.51 144.15 27.62C144.17 28.34 144.14 29.06 144.07 29.77C144.04 29.91 143.98 30.05 143.89 30.16C143.8 30.27 143.69 30.36 143.55 30.41C142.81 30.81 141.98 31.04 141.13 31.1C138.77 31.33 136.49 31.01 134.4 29.83C132.09 28.52 130.81 26.5 130.34 23.93C129.96 21.93 130.01 19.92 130.79 18.02C132.19 14.69 134.69 12.75 138.28 12.24C139.82 12.03 141.39 12.08 142.92 12.36C143.7 12.5 144.08 12.92 144.21 13.7C144.39 14.73 144.51 15.78 144.57 16.83C144.6 17.52 144.57 18.22 144.57 18.91L144.66 18.91Z" fill="#F77833" fill-opacity="1.000000" fill-rule="nonzero"/>
	<path id="Vector" d="M17.97 24.62C17.87 26.64 17.87 28.67 17.97 30.69C18.01 31.38 17.97 31.47 17.26 31.58C16.88 31.63 16.49 31.66 16.1 31.66C14.4 31.66 12.7 31.66 11 31.66C10.71 31.66 10.42 31.66 10.13 31.64C9.58 31.64 9.43 31.51 9.29 30.97C9.12 30.28 9.03 29.57 9.02 28.87C8.8 25.43 8.59 21.99 8.4 18.55C8.22 15.34 8 12.13 8 8.91C8 8.39 8.05 8.31 8.58 8.22C9.83 8.05 11.09 7.98 12.34 8.01C13.9 7.98 15.45 8.01 17 8.01C17.51 8.01 17.55 8.04 17.53 8.57C17.46 10.62 17.53 12.67 17.63 14.71C17.67 15.82 17.75 16.92 17.91 18.03C18.31 17.02 18.77 15.99 19.19 14.98C20.07 12.82 20.89 10.64 21.57 8.41C21.57 8.35 21.59 8.29 21.62 8.23C21.65 8.18 21.69 8.13 21.74 8.09C21.79 8.05 21.85 8.03 21.91 8.01C21.97 7.99 22.03 7.99 22.1 8C24.39 8.04 26.67 8.24 28.94 8.6C29.79 8.76 29.83 8.84 29.56 9.67C28.44 13.09 26.95 16.34 24.73 19.2C24.55 19.37 24.43 19.61 24.41 19.86C24.39 20.11 24.46 20.36 24.6 20.56C27.11 23.84 29.09 26.23 30.19 29.8C30.35 30.31 30.28 30.47 29.79 30.66C28.91 30.96 28 31.13 27.08 31.18C25.6 31.33 24.12 31.38 22.63 31.4C22.5 31.42 22.37 31.39 22.27 31.31C22.16 31.23 22.09 31.12 22.07 30.99C21.39 29.07 20.35 27.24 18.27 24.9C18.22 24.78 18.03 24.73 17.97 24.62Z" fill="#F77833" fill-opacity="1.000000" fill-rule="nonzero"/>
	<path id="Vector" d="M120.63 25.44C120.55 27.04 120.55 28.63 120.63 30.23C120.66 30.78 120.63 30.85 120.07 30.93C119.77 30.97 119.46 31 119.15 31C117.8 31 116.46 31 115.12 31C114.89 31 114.66 31 114.43 30.98C114 30.98 113.88 30.87 113.76 30.45C113.63 29.9 113.56 29.35 113.55 28.79C113.37 26.08 113.21 23.37 113.06 20.66C112.92 18.12 112.74 15.59 112.74 13.05C112.74 12.64 112.78 12.58 113.2 12.51C114.19 12.38 115.18 12.32 116.18 12.34C117.41 12.32 118.64 12.34 119.86 12.34C120.27 12.34 120.3 12.36 120.29 12.78C120.23 14.4 120.29 16.01 120.36 17.63C120.4 18.5 120.46 19.36 120.58 20.25C120.9 19.45 121.27 18.63 121.6 17.84C122.29 16.14 122.94 14.42 123.48 12.66C123.48 12.61 123.5 12.56 123.52 12.52C123.55 12.47 123.58 12.43 123.62 12.4C123.66 12.37 123.7 12.35 123.75 12.34C123.8 12.33 123.85 12.33 123.9 12.33C125.71 12.36 127.52 12.52 129.31 12.81C129.99 12.93 130.01 13 129.8 13.65C128.92 16.35 127.74 18.91 125.98 21.16C125.84 21.3 125.75 21.49 125.73 21.68C125.71 21.88 125.77 22.08 125.88 22.24C127.86 24.82 129.44 26.71 130.3 29.53C130.43 29.93 130.37 30.05 129.98 30.2C129.29 30.44 128.57 30.58 127.84 30.61C126.67 30.73 125.5 30.78 124.32 30.79C124.22 30.8 124.11 30.78 124.03 30.72C123.95 30.66 123.89 30.57 123.88 30.47C123.34 28.95 122.52 27.51 120.87 25.66C120.83 25.56 120.68 25.53 120.63 25.44Z" fill="#F77833" fill-opacity="1.000000" fill-rule="nonzero"/>
	<path id="Vector" d="M85.54 12.37C88.13 12.34 90.71 12.4 93.29 12.53C94.49 12.6 94.54 12.63 94.57 13.83C94.64 16.01 94.63 18.19 94.52 20.37C94.49 20.82 94.35 20.96 93.89 20.96C93.04 20.96 92.18 20.96 91.32 20.96C91.06 20.96 90.99 21.03 90.98 21.29C90.8 24.34 90.52 27.37 90.18 30.39C90.16 30.56 90.09 30.71 89.98 30.82C89.87 30.94 89.72 31.02 89.56 31.04C89.17 31.13 88.77 31.17 88.37 31.16C87.26 31.16 86.15 31.16 85.03 31.06C84.54 31.02 84.39 30.89 84.36 30.4C84.26 28.88 84.18 27.35 84.07 25.84C83.95 24.27 83.81 22.71 83.7 21.13C83.68 20.87 83.52 20.87 83.34 20.85C82.54 20.85 81.73 20.83 80.92 20.83C80.22 20.83 80.14 20.74 80.1 20.05C79.98 18.01 79.99 15.96 80.05 13.92C80.05 13.6 80.09 13.28 80.11 12.95C80.1 12.88 80.11 12.81 80.14 12.74C80.17 12.67 80.21 12.6 80.26 12.55C80.31 12.5 80.38 12.46 80.45 12.43C80.51 12.41 80.59 12.39 80.66 12.4C82.29 12.33 83.91 12.39 85.54 12.37Z" fill="#F77833" fill-opacity="1.000000" fill-rule="nonzero"/>
</svg>
