<svg width="24.000000" height="24.000000" viewBox="0 0 24 24" fill="none" xmlns="http://www.w3.org/2000/svg" xmlns:xlink="http://www.w3.org/1999/xlink">
	<desc>
			Created with Pixso.
	</desc>
	<defs>
		<clipPath id="clip1_1441">
			<rect id="icons" rx="-0.500000" width="23.000000" height="23.000000" transform="translate(0.500000 0.500000)" fill="white" fill-opacity="0"/>
		</clipPath>
	</defs>
	<g clip-path="url(#clip1_1441)">
		<path id="Union" d="M20 21.625L4 21.625C3.64999 21.625 3.375 21.3501 3.375 21L3.375 19Q3.375 18.54 3.46301 18.0977Q3.55103 17.655 3.72705 17.23Q3.90308 16.8052 4.15372 16.4299Q4.40436 16.0549 4.72964 15.7297Q5.0549 15.4043 5.42999 15.1538Q5.80511 14.9031 6.2301 14.7271Q6.65506 14.551 7.09753 14.4631Q7.54001 14.375 8 14.375L16 14.375Q16.46 14.375 16.9025 14.4631Q17.3449 14.551 17.7699 14.7271Q18.1949 14.9031 18.57 15.1538Q18.9451 15.4043 19.2704 15.7297Q19.5956 16.0549 19.8463 16.4299Q20.0969 16.8052 20.2729 17.23Q20.449 17.655 20.537 18.0977Q20.625 18.54 20.625 19L20.625 21C20.625 21.3501 20.35 21.625 20 21.625ZM19.375 20.375L19.375 19Q19.375 18.6643 19.3108 18.3416Q19.2466 18.0186 19.1181 17.7085Q18.9896 17.3984 18.8067 17.1245Q18.6238 16.8508 18.3865 16.6135Q18.1491 16.3762 17.8754 16.1934Q17.6017 16.0103 17.2916 15.8818Q16.9814 15.7534 16.6585 15.6892Q16.3357 15.625 16 15.625L8 15.625Q7.66434 15.625 7.34146 15.6892Q7.01855 15.7534 6.70844 15.8818Q6.39835 16.0103 6.1246 16.1934Q5.85086 16.3762 5.61353 16.6135Q5.37616 16.8508 5.19327 17.1245Q5.01035 17.3984 4.8819 17.7085Q4.75345 18.0186 4.68924 18.3416Q4.625 18.6643 4.625 19L4.625 20.375L19.375 20.375Z" clip-rule="evenodd" fill="#383838" fill-opacity="1.000000" fill-rule="evenodd"/>
		<path id="Vector" d="M12 11C9.79 11 8 9.2 8 7C8 4.79 9.79 3 12 3C14.2 3 16 4.79 16 7C16 9.2 14.2 11 12 11Z" stroke="#383838" stroke-opacity="1.000000" stroke-width="1.250000" stroke-linejoin="round"/>
	</g>
</svg>
