<svg width="41" height="35" viewBox="0 0 41 35" fill="none" xmlns="http://www.w3.org/2000/svg">
<path opacity="0.01" d="M19.1519 26.5503C20.2743 26.5503 21.1842 25.6404 21.1842 24.518C21.1842 23.3956 20.2743 22.4857 19.1519 22.4857C18.0295 22.4857 17.1196 23.3956 17.1196 24.518C17.1196 25.6404 18.0295 26.5503 19.1519 26.5503Z" fill="black"/>
<path opacity="0.02" d="M19.268 26.5163C20.3915 26.5163 21.3023 25.6055 21.3023 24.482C21.3023 23.3585 20.3915 22.4477 19.268 22.4477C18.1445 22.4477 17.2337 23.3585 17.2337 24.482C17.2337 25.6055 18.1445 26.5163 19.268 26.5163Z" fill="black"/>
<path opacity="0.03" d="M19.3842 26.4783C20.5077 26.4783 21.4185 25.5675 21.4185 24.4439C21.4185 23.3204 20.5077 22.4096 19.3842 22.4096C18.2606 22.4096 17.3498 23.3204 17.3498 24.4439C17.3498 25.5675 18.2606 26.4783 19.3842 26.4783Z" fill="black"/>
<path opacity="0.04" d="M19.5003 26.4442C20.6249 26.4442 21.5366 25.5325 21.5366 24.4079C21.5366 23.2833 20.6249 22.3716 19.5003 22.3716C18.3757 22.3716 17.464 23.2833 17.464 24.4079C17.464 25.5325 18.3757 26.4442 19.5003 26.4442Z" fill="black"/>
<path opacity="0.05" d="M19.6144 26.4062C20.739 26.4062 21.6507 25.4945 21.6507 24.3699C21.6507 23.2452 20.739 22.3335 19.6144 22.3335C18.4898 22.3335 17.5781 23.2452 17.5781 24.3699C17.5781 25.4945 18.4898 26.4062 19.6144 26.4062Z" fill="black"/>
<path opacity="0.06" d="M19.7306 26.3721C20.8563 26.3721 21.7689 25.4595 21.7689 24.3338C21.7689 23.2081 20.8563 22.2955 19.7306 22.2955C18.6048 22.2955 17.6922 23.2081 17.6922 24.3338C17.6922 25.4595 18.6048 26.3721 19.7306 26.3721Z" fill="black"/>
<path opacity="0.07" d="M19.8467 26.3341C20.9724 26.3341 21.885 25.4215 21.885 24.2958C21.885 23.17 20.9724 22.2574 19.8467 22.2574C18.7209 22.2574 17.8083 23.17 17.8083 24.2958C17.8083 25.4215 18.7209 26.3341 19.8467 26.3341Z" fill="black"/>
<path opacity="0.08" d="M19.9628 26.2981C21.0886 26.2981 22.0011 25.3855 22.0011 24.2597C22.0011 23.134 21.0886 22.2214 19.9628 22.2214C18.8371 22.2214 17.9245 23.134 17.9245 24.2597C17.9245 25.3855 18.8371 26.2981 19.9628 26.2981Z" fill="black"/>
<path opacity="0.09" d="M20.0769 26.262C21.2038 26.262 22.1173 25.3485 22.1173 24.2217C22.1173 23.0948 21.2038 22.1813 20.0769 22.1813C18.9501 22.1813 18.0366 23.0948 18.0366 24.2217C18.0366 25.3485 18.9501 26.262 20.0769 26.262Z" fill="black"/>
<path opacity="0.1" d="M20.1931 26.226C21.3199 26.226 22.2334 25.3125 22.2334 24.1856C22.2334 23.0588 21.3199 22.1453 20.1931 22.1453C19.0662 22.1453 18.1527 23.0588 18.1527 24.1856C18.1527 25.3125 19.0662 26.226 20.1931 26.226Z" fill="black"/>
<path opacity="0.11" d="M20.3092 26.1899C21.4372 26.1899 22.3515 25.2755 22.3515 24.1476C22.3515 23.0196 21.4372 22.1053 20.3092 22.1053C19.1813 22.1053 18.2669 23.0196 18.2669 24.1476C18.2669 25.2755 19.1813 26.1899 20.3092 26.1899Z" fill="black"/>
<path opacity="0.12" d="M20.4253 26.1539C21.5533 26.1539 22.4677 25.2395 22.4677 24.1116C22.4677 22.9836 21.5533 22.0692 20.4253 22.0692C19.2974 22.0692 18.383 22.9836 18.383 24.1116C18.383 25.2395 19.2974 26.1539 20.4253 26.1539Z" fill="black"/>
<path opacity="0.13" d="M20.5415 26.1178C21.6705 26.1178 22.5858 25.2026 22.5858 24.0735C22.5858 22.9445 21.6705 22.0292 20.5415 22.0292C19.4124 22.0292 18.4971 22.9445 18.4971 24.0735C18.4971 25.2026 19.4124 26.1178 20.5415 26.1178Z" fill="black"/>
<path opacity="0.14" d="M20.6556 26.0818C21.7847 26.0818 22.6999 25.1665 22.6999 24.0375C22.6999 22.9084 21.7847 21.9931 20.6556 21.9931C19.5265 21.9931 18.6113 22.9084 18.6113 24.0375C18.6113 25.1665 19.5265 26.0818 20.6556 26.0818Z" fill="black"/>
<path opacity="0.15" d="M20.7717 26.0458C21.9019 26.0458 22.8181 25.1296 22.8181 23.9994C22.8181 22.8693 21.9019 21.9531 20.7717 21.9531C19.6416 21.9531 18.7254 22.8693 18.7254 23.9994C18.7254 25.1296 19.6416 26.0458 20.7717 26.0458Z" fill="black"/>
<path opacity="0.16" d="M20.8879 26.0097C22.018 26.0097 22.9342 25.0935 22.9342 23.9634C22.9342 22.8332 22.018 21.917 20.8879 21.917C19.7577 21.917 18.8415 22.8332 18.8415 23.9634C18.8415 25.0935 19.7577 26.0097 20.8879 26.0097Z" fill="black"/>
<path opacity="0.17" d="M21.004 25.9737C22.1353 25.9737 23.0523 25.0566 23.0523 23.9253C23.0523 22.7941 22.1353 21.877 21.004 21.877C19.8727 21.877 18.9557 22.7941 18.9557 23.9253C18.9557 25.0566 19.8727 25.9737 21.004 25.9737Z" fill="black"/>
<path opacity="0.18" d="M21.1201 25.9377C22.2514 25.9377 23.1685 25.0206 23.1685 23.8893C23.1685 22.758 22.2514 21.841 21.1201 21.841C19.9889 21.841 19.0718 22.758 19.0718 23.8893C19.0718 25.0206 19.9889 25.9377 21.1201 25.9377Z" fill="black"/>
<path opacity="0.19" d="M21.2343 25.9016C22.3666 25.9016 23.2846 24.9837 23.2846 23.8513C23.2846 22.7189 22.3666 21.8009 21.2343 21.8009C20.1019 21.8009 19.1839 22.7189 19.1839 23.8513C19.1839 24.9837 20.1019 25.9016 21.2343 25.9016Z" fill="black"/>
<path opacity="0.2" d="M21.3504 25.8655C22.4828 25.8655 23.4007 24.9476 23.4007 23.8152C23.4007 22.6828 22.4828 21.7649 21.3504 21.7649C20.218 21.7649 19.3001 22.6828 19.3001 23.8152C19.3001 24.9476 20.218 25.8655 21.3504 25.8655Z" fill="black"/>
<path opacity="0.21" d="M21.4665 25.8295C22.6 25.8295 23.5189 24.9106 23.5189 23.7772C23.5189 22.6437 22.6 21.7248 21.4665 21.7248C20.3331 21.7248 19.4142 22.6437 19.4142 23.7772C19.4142 24.9106 20.3331 25.8295 21.4665 25.8295Z" fill="black"/>
<path opacity="0.22" d="M21.5827 25.7935C22.7161 25.7935 23.635 24.8746 23.635 23.7411C23.635 22.6076 22.7161 21.6888 21.5827 21.6888C20.4492 21.6888 19.5303 22.6076 19.5303 23.7411C19.5303 24.8746 20.4492 25.7935 21.5827 25.7935Z" fill="black"/>
<path opacity="0.23" d="M21.6988 25.7574C22.8334 25.7574 23.7531 24.8377 23.7531 23.7031C23.7531 22.5685 22.8334 21.6487 21.6988 21.6487C20.5642 21.6487 19.6444 22.5685 19.6444 23.7031C19.6444 24.8377 20.5642 25.7574 21.6988 25.7574Z" fill="black"/>
<path opacity="0.24" d="M21.8129 25.7214C22.9475 25.7214 23.8673 24.8016 23.8673 23.667C23.8673 22.5325 22.9475 21.6127 21.8129 21.6127C20.6783 21.6127 19.7586 22.5325 19.7586 23.667C19.7586 24.8016 20.6783 25.7214 21.8129 25.7214Z" fill="black"/>
<path opacity="0.25" d="M21.9291 25.6833C23.0636 25.6833 23.9834 24.7636 23.9834 23.629C23.9834 22.4944 23.0636 21.5746 21.9291 21.5746C20.7945 21.5746 19.8747 22.4944 19.8747 23.629C19.8747 24.7636 20.7945 25.6833 21.9291 25.6833Z" fill="black"/>
<path opacity="0.26" d="M22.0452 25.6493C23.1809 25.6493 24.1015 24.7287 24.1015 23.593C24.1015 22.4573 23.1809 21.5366 22.0452 21.5366C20.9095 21.5366 19.9888 22.4573 19.9888 23.593C19.9888 24.7287 20.9095 25.6493 22.0452 25.6493Z" fill="black"/>
<path opacity="0.27" d="M22.1613 25.6113C23.297 25.6113 24.2177 24.6906 24.2177 23.5549C24.2177 22.4192 23.297 21.4986 22.1613 21.4986C21.0256 21.4986 20.105 22.4192 20.105 23.5549C20.105 24.6906 21.0256 25.6113 22.1613 25.6113Z" fill="black"/>
<path opacity="0.28" d="M22.2775 25.5772C23.4143 25.5772 24.3358 24.6557 24.3358 23.5189C24.3358 22.3821 23.4143 21.4605 22.2775 21.4605C21.1407 21.4605 20.2191 22.3821 20.2191 23.5189C20.2191 24.6557 21.1407 25.5772 22.2775 25.5772Z" fill="black"/>
<path opacity="0.29" d="M22.3916 25.5392C23.5284 25.5392 24.4499 24.6176 24.4499 23.4808C24.4499 22.344 23.5284 21.4225 22.3916 21.4225C21.2548 21.4225 20.3332 22.344 20.3332 23.4808C20.3332 24.6176 21.2548 25.5392 22.3916 25.5392Z" fill="black"/>
<path opacity="0.3" d="M22.5077 25.5051C23.6456 25.5051 24.5681 24.5827 24.5681 23.4448C24.5681 22.3069 23.6456 21.3844 22.5077 21.3844C21.3698 21.3844 20.4474 22.3069 20.4474 23.4448C20.4474 24.5827 21.3698 25.5051 22.5077 25.5051Z" fill="black"/>
<path opacity="0.31" d="M22.6239 25.4671C23.7618 25.4671 24.6842 24.5447 24.6842 23.4068C24.6842 22.2689 23.7618 21.3464 22.6239 21.3464C21.486 21.3464 20.5635 22.2689 20.5635 23.4068C20.5635 24.5447 21.486 25.4671 22.6239 25.4671Z" fill="black"/>
<path opacity="0.32" d="M22.74 25.4331C23.879 25.4331 24.8023 24.5097 24.8023 23.3707C24.8023 22.2317 23.879 21.3083 22.74 21.3083C21.601 21.3083 20.6776 22.2317 20.6776 23.3707C20.6776 24.5097 21.601 25.4331 22.74 25.4331Z" fill="black"/>
<path opacity="0.33" d="M22.8561 25.395C23.9951 25.395 24.9185 24.4717 24.9185 23.3327C24.9185 22.1936 23.9951 21.2703 22.8561 21.2703C21.7171 21.2703 20.7938 22.1936 20.7938 23.3327C20.7938 24.4717 21.7171 25.395 22.8561 25.395Z" fill="black"/>
<path opacity="0.34" d="M22.9703 25.361C24.1104 25.361 25.0346 24.4367 25.0346 23.2966C25.0346 22.1565 24.1104 21.2323 22.9703 21.2323C21.8301 21.2323 20.9059 22.1565 20.9059 23.2966C20.9059 24.4367 21.8301 25.361 22.9703 25.361Z" fill="black"/>
<path opacity="0.35" d="M23.0864 25.323C24.2265 25.323 25.1507 24.3987 25.1507 23.2586C25.1507 22.1185 24.2265 21.1942 23.0864 21.1942C21.9463 21.1942 21.022 22.1185 21.022 23.2586C21.022 24.3987 21.9463 25.323 23.0864 25.323Z" fill="black"/>
<path opacity="0.36" d="M23.2025 25.2889C24.3437 25.2889 25.2689 24.3638 25.2689 23.2226C25.2689 22.0813 24.3437 21.1562 23.2025 21.1562C22.0613 21.1562 21.1362 22.0813 21.1362 23.2226C21.1362 24.3638 22.0613 25.2889 23.2025 25.2889Z" fill="black"/>
<path opacity="0.37" d="M23.3187 25.2509C24.4599 25.2509 25.385 24.3257 25.385 23.1845C25.385 22.0433 24.4599 21.1181 23.3187 21.1181C22.1774 21.1181 21.2523 22.0433 21.2523 23.1845C21.2523 24.3257 22.1774 25.2509 23.3187 25.2509Z" fill="black"/>
<path opacity="0.38" d="M23.4348 25.2168C24.5771 25.2168 25.5031 24.2908 25.5031 23.1484C25.5031 22.0061 24.5771 21.0801 23.4348 21.0801C22.2925 21.0801 21.3664 22.0061 21.3664 23.1484C21.3664 24.2908 22.2925 25.2168 23.4348 25.2168Z" fill="black"/>
<path opacity="0.39" d="M23.5489 25.1788C24.6912 25.1788 25.6173 24.2527 25.6173 23.1104C25.6173 21.9681 24.6912 21.042 23.5489 21.042C22.4066 21.042 21.4805 21.9681 21.4805 23.1104C21.4805 24.2527 22.4066 25.1788 23.5489 25.1788Z" fill="black"/>
<path opacity="0.4" d="M23.665 25.1447C24.8085 25.1447 25.7354 24.2178 25.7354 23.0744C25.7354 21.9309 24.8085 21.004 23.665 21.004C22.5216 21.004 21.5947 21.9309 21.5947 23.0744C21.5947 24.2178 22.5216 25.1447 23.665 25.1447Z" fill="black"/>
<path opacity="0.41" d="M23.7812 25.1067C24.9246 25.1067 25.8515 24.1798 25.8515 23.0363C25.8515 21.8929 24.9246 20.966 23.7812 20.966C22.6377 20.966 21.7108 21.8929 21.7108 23.0363C21.7108 24.1798 22.6377 25.1067 23.7812 25.1067Z" fill="black"/>
<path opacity="0.42" d="M23.8973 25.0707C25.0407 25.0707 25.9677 24.1437 25.9677 23.0003C25.9677 21.8569 25.0407 20.9299 23.8973 20.9299C22.7539 20.9299 21.8269 21.8569 21.8269 23.0003C21.8269 24.1437 22.7539 25.0707 23.8973 25.0707Z" fill="black"/>
<path opacity="0.43" d="M24.0134 25.0346C25.158 25.0346 26.0858 24.1068 26.0858 22.9622C26.0858 21.8177 25.158 20.8899 24.0134 20.8899C22.8689 20.8899 21.9411 21.8177 21.9411 22.9622C21.9411 24.1068 22.8689 25.0346 24.0134 25.0346Z" fill="black"/>
<path opacity="0.44" d="M24.1276 24.9986C25.2721 24.9986 26.1999 24.0707 26.1999 22.9262C26.1999 21.7817 25.2721 20.8538 24.1276 20.8538C22.983 20.8538 22.0552 21.7817 22.0552 22.9262C22.0552 24.0707 22.983 24.9986 24.1276 24.9986Z" fill="black"/>
<path opacity="0.45" d="M24.2437 24.9625C25.3894 24.9625 26.3181 24.0338 26.3181 22.8882C26.3181 21.7425 25.3894 20.8138 24.2437 20.8138C23.0981 20.8138 22.1693 21.7425 22.1693 22.8882C22.1693 24.0338 23.0981 24.9625 24.2437 24.9625Z" fill="black"/>
<path opacity="0.46" d="M24.3598 24.9265C25.5055 24.9265 26.4342 23.9978 26.4342 22.8521C26.4342 21.7065 25.5055 20.7777 24.3598 20.7777C23.2142 20.7777 22.2855 21.7065 22.2855 22.8521C22.2855 23.9978 23.2142 24.9265 24.3598 24.9265Z" fill="black"/>
<path opacity="0.47" d="M24.476 24.8904C25.6227 24.8904 26.5523 23.9608 26.5523 22.8141C26.5523 21.6673 25.6227 20.7377 24.476 20.7377C23.3292 20.7377 22.3996 21.6673 22.3996 22.8141C22.3996 23.9608 23.3292 24.8904 24.476 24.8904Z" fill="black"/>
<path opacity="0.48" d="M26.6666 22.7889C26.674 21.6421 25.7504 20.7065 24.6037 20.6991C23.4569 20.6917 22.5213 21.6153 22.5139 22.762C22.5065 23.9088 23.4301 24.8444 24.5768 24.8518C25.7236 24.8592 26.6592 23.9356 26.6666 22.7889Z" fill="black"/>
<path opacity="0.49" d="M26.7868 22.7487C26.7896 21.6008 25.8614 20.668 24.7135 20.6652C23.5657 20.6624 22.6329 21.5906 22.6301 22.7385C22.6273 23.8863 23.5555 24.8191 24.7034 24.8219C25.8512 24.8247 26.784 23.8965 26.7868 22.7487Z" fill="black"/>
<path opacity="0.5" d="M24.8275 24.781C25.9754 24.779 26.9043 23.8469 26.9023 22.699C26.9003 21.5512 25.9681 20.6223 24.8203 20.6243C23.6724 20.6263 22.7435 21.5584 22.7455 22.7063C22.7475 23.8541 23.6797 24.783 24.8275 24.781Z" fill="black"/>
<path opacity="0.5" d="M24.9525 24.7444C26.1014 24.7378 27.0274 23.801 27.0208 22.6521C27.0142 21.5031 26.0774 20.5771 24.9285 20.5837C23.7796 20.5903 22.8535 21.5271 22.8601 22.676C22.8668 23.825 23.8035 24.751 24.9525 24.7444Z" fill="black"/>
<path opacity="0.51" d="M25.0744 24.7089C26.2233 24.6979 27.1458 23.7575 27.1347 22.6086C27.1237 21.4597 26.1834 20.5373 25.0345 20.5483C23.8856 20.5594 22.9631 21.4997 22.9742 22.6486C22.9852 23.7975 23.9255 24.7199 25.0744 24.7089Z" fill="black"/>
<path opacity="0.52" d="M25.1997 24.6721C26.3497 24.6566 27.2694 23.7119 27.2539 22.5619C27.2385 21.412 26.2937 20.4923 25.1438 20.5077C23.9938 20.5232 23.0741 21.4679 23.0896 22.6179C23.105 23.7679 24.0498 24.6876 25.1997 24.6721Z" fill="black"/>
<path opacity="0.53" d="M25.3222 24.6366C26.4721 24.6169 27.3883 23.6688 27.3686 22.5189C27.3489 21.369 26.4008 20.4528 25.2509 20.4724C24.101 20.4921 23.1848 21.4402 23.2045 22.5901C23.2241 23.74 24.1723 24.6563 25.3222 24.6366Z" fill="black"/>
<path opacity="0.54" d="M25.446 24.5999C26.5969 24.576 27.5105 23.6236 27.4866 22.4727C27.4627 21.3217 26.5103 20.4081 25.3594 20.432C24.2085 20.4559 23.2948 21.4083 23.3187 22.5592C23.3426 23.7102 24.295 24.6238 25.446 24.5999Z" fill="black"/>
<path opacity="0.55" d="M25.4719 24.6805C26.623 24.6574 27.5376 23.7056 27.5146 22.5544C27.4915 21.4032 26.5397 20.4887 25.3885 20.5117C24.2373 20.5347 23.3228 21.4866 23.3458 22.6378C23.3688 23.7889 24.3207 24.7035 25.4719 24.6805Z" fill="black"/>
<path opacity="0.56" d="M25.6933 24.5262C26.844 24.4942 27.751 23.5355 27.7191 22.3847C27.6871 21.234 26.7284 20.3271 25.5776 20.359C24.4269 20.3909 23.52 21.3497 23.5519 22.5004C23.5838 23.6511 24.5426 24.5581 25.6933 24.5262Z" fill="black"/>
<path opacity="0.57" d="M25.8151 24.4933C26.9668 24.4575 27.8714 23.4948 27.8356 22.3431C27.7998 21.1914 26.8372 20.2867 25.6854 20.3225C24.5337 20.3583 23.6291 21.321 23.6649 22.4727C23.7007 23.6244 24.6633 24.5291 25.8151 24.4933Z" fill="black"/>
<path opacity="0.58" d="M25.8444 24.5811C26.9967 24.5465 27.9027 23.5844 27.8682 22.4321C27.8336 21.2798 26.8715 20.3738 25.7192 20.4083C24.5669 20.4429 23.6608 21.405 23.6954 22.5573C23.73 23.7096 24.6921 24.6157 25.8444 24.5811Z" fill="black"/>
<path opacity="0.59" d="M26.0567 24.4232C27.2092 24.3799 28.1085 23.4105 28.0652 22.2579C28.022 21.1053 27.0526 20.2061 25.9 20.2494C24.7474 20.2926 23.8481 21.262 23.8914 22.4146C23.9347 23.5672 24.9041 24.4665 26.0567 24.4232Z" fill="black"/>
<path opacity="0.6" d="M26.1842 24.4213C27.3376 24.3751 28.2352 23.4027 28.189 22.2493C28.1429 21.096 27.1705 20.1984 26.0171 20.2445C24.8637 20.2906 23.9661 21.263 24.0122 22.4164C24.0584 23.5698 25.0308 24.4674 26.1842 24.4213Z" fill="black"/>
<path opacity="0.61" d="M26.3021 24.3479C27.4555 24.2973 28.3495 23.3213 28.2989 22.168C28.2484 21.0146 27.2724 20.1206 26.119 20.1711C24.9656 20.2217 24.0716 21.1977 24.1222 22.351C24.1727 23.5044 25.1487 24.3984 26.3021 24.3479Z" fill="black"/>
<path opacity="0.62" d="M26.4249 24.3069C27.5781 24.2527 28.4691 23.2739 28.4149 22.1207C28.3607 20.9675 27.3819 20.0765 26.2287 20.1307C25.0755 20.1849 24.1845 21.1637 24.2387 22.3169C24.2929 23.4701 25.2717 24.3611 26.4249 24.3069Z" fill="black"/>
<path opacity="0.63" d="M26.5454 24.2785C27.6996 24.2211 28.5886 23.2388 28.5312 22.0847C28.4737 20.9305 27.4915 20.0414 26.3373 20.0989C25.1832 20.1564 24.2941 21.1386 24.3516 22.2927C24.409 23.4469 25.3912 24.336 26.5454 24.2785Z" fill="black"/>
<path opacity="0.64" d="M26.6692 24.2365C27.8232 24.1756 28.7094 23.1907 28.6485 22.0367C28.5876 20.8827 27.6028 19.9966 26.4488 20.0575C25.2948 20.1184 24.4086 21.1032 24.4695 22.2572C24.5304 23.4112 25.5152 24.2973 26.6692 24.2365Z" fill="black"/>
<path opacity="0.65" d="M26.7888 24.2044C27.9437 24.1402 28.828 23.152 28.7638 21.997C28.6996 20.8421 27.7114 19.9579 26.5564 20.0221C25.4015 20.0862 24.5173 21.0745 24.5815 22.2294C24.6456 23.3843 25.6339 24.2686 26.7888 24.2044Z" fill="black"/>
<path opacity="0.66" d="M26.9117 24.1655C28.0665 24.0982 28.9479 23.1074 28.8805 21.9527C28.8131 20.798 27.8224 19.9165 26.6677 19.9839C25.5129 20.0513 24.6315 21.042 24.6989 22.1967C24.7663 23.3515 25.757 24.2329 26.9117 24.1655Z" fill="black"/>
<path opacity="0.67" d="M27.0344 24.128C28.1901 24.0573 29.0696 23.0632 28.9989 21.9075C28.9282 20.7519 27.9341 19.8724 26.7784 19.943C25.6228 20.0137 24.7433 21.0079 24.8139 22.1635C24.8846 23.3191 25.8788 24.1987 27.0344 24.128Z" fill="black"/>
<path opacity="0.68" d="M27.1545 24.0905C28.3099 24.0168 29.1869 23.0204 29.1132 21.8649C29.0395 20.7094 28.043 19.8325 26.8876 19.9062C25.7321 19.9799 24.8552 20.9764 24.9289 22.1318C25.0026 23.2873 25.999 24.1642 27.1545 24.0905Z" fill="black"/>
<path opacity="0.69" d="M27.2764 24.0562C28.4328 23.9794 29.3079 22.9797 29.2311 21.8234C29.1543 20.667 28.1546 19.7918 26.9983 19.8687C25.8419 19.9455 24.9667 20.9451 25.0435 22.1015C25.1204 23.2579 26.12 24.133 27.2764 24.0562Z" fill="black"/>
<path opacity="0.7" d="M27.3996 24.0152C28.5558 23.9354 29.4283 22.9334 29.3485 21.7773C29.2687 20.6211 28.2667 19.7486 27.1105 19.8284C25.9544 19.9082 25.0818 20.9102 25.1617 22.0664C25.2415 23.2225 26.2435 24.0951 27.3996 24.0152Z" fill="black"/>
<path opacity="0.71" d="M27.5189 23.9826C28.6759 23.8998 29.5469 22.8948 29.4641 21.7377C29.3814 20.5806 28.3763 19.7097 27.2193 19.7925C26.0622 19.8752 25.1913 20.8802 25.274 22.0373C25.3568 23.1944 26.3618 24.0653 27.5189 23.9826Z" fill="black"/>
<path opacity="0.72" d="M27.6395 23.9453C28.7963 23.8598 29.6648 22.8526 29.5792 21.6957C29.4936 20.5389 28.4865 19.6704 27.3296 19.756C26.1727 19.8415 25.3043 20.8487 25.3899 22.0056C25.4754 23.1624 26.4826 24.0309 27.6395 23.9453Z" fill="black"/>
<path opacity="0.73" d="M27.931 23.8719C29.091 23.779 29.9561 22.7634 29.8633 21.6034C29.7705 20.4434 28.7549 19.5782 27.5949 19.671C26.4349 19.7639 25.5697 20.7795 25.6625 21.9395C25.7553 23.0995 26.7709 23.9647 27.931 23.8719Z" fill="black"/>
<path opacity="0.74" d="M27.8799 23.8737C29.0375 23.7826 29.902 22.7704 29.8109 21.6128C29.7198 20.4553 28.7076 19.5907 27.55 19.6818C26.3925 19.7729 25.528 20.7852 25.6191 21.9427C25.7102 23.1003 26.7224 23.9648 27.8799 23.8737Z" fill="black"/>
<path opacity="0.75" d="M27.9997 23.8375C29.1571 23.7438 30.0193 22.7296 29.9256 21.5722C29.8318 20.4149 28.8177 19.5527 27.6603 19.6464C26.503 19.7401 25.6408 20.7543 25.7345 21.9116C25.8282 23.069 26.8424 23.9312 27.9997 23.8375Z" fill="black"/>
<path opacity="0.76" d="M28.1212 23.8007C29.2794 23.7042 30.1401 22.6871 30.0437 21.5289C29.9472 20.3707 28.9301 19.5099 27.7719 19.6064C26.6137 19.7028 25.753 20.7199 25.8494 21.8782C25.9458 23.0364 26.963 23.8971 28.1212 23.8007Z" fill="black"/>
<path opacity="0.77" d="M28.2423 23.7634C29.4003 23.6643 30.2587 22.6452 30.1596 21.4872C30.0605 20.3292 29.0415 19.4708 27.8835 19.5699C26.7255 19.669 25.8671 20.688 25.9661 21.846C26.0652 23.004 27.0843 23.8624 28.2423 23.7634Z" fill="black"/>
<path opacity="0.78" d="M28.365 23.7253C29.5239 23.6235 30.3808 22.6015 30.279 21.4427C30.1772 20.2838 29.1552 19.4269 27.9964 19.5287C26.8375 19.6305 25.9805 20.6524 26.0823 21.8113C26.1841 22.9702 27.2061 23.8271 28.365 23.7253Z" fill="black"/>
<path opacity="0.79" d="M28.4837 23.6899C29.6423 23.5857 30.4971 22.5619 30.3929 21.4033C30.2887 20.2446 29.2649 19.3898 28.1062 19.494C26.9476 19.5982 26.0928 20.622 26.197 21.7807C26.3012 22.9393 27.325 23.7941 28.4837 23.6899Z" fill="black"/>
<path opacity="0.8" d="M28.604 23.6519C29.7636 23.5452 30.617 22.5186 30.5103 21.3591C30.4035 20.1996 29.377 19.3461 28.2175 19.4529C27.0579 19.5596 26.2045 20.5861 26.3112 21.7457C26.418 22.9052 27.4445 23.7587 28.604 23.6519Z" fill="black"/>
<path opacity="0.81" d="M28.7261 23.6154C29.8854 23.5062 30.7367 22.4779 30.6275 21.3186C30.5183 20.1593 29.49 19.308 28.3307 19.4172C27.1714 19.5263 26.3201 20.5546 26.4293 21.714C26.5384 22.8733 27.5667 23.7246 28.7261 23.6154Z" fill="black"/>
<path opacity="0.82" d="M28.8421 23.5819C30.0023 23.4704 30.8525 22.4395 30.741 21.2793C30.6295 20.1191 29.5985 19.2689 28.4383 19.3804C27.2781 19.4919 26.428 20.5229 26.5395 21.6831C26.651 22.8433 27.6819 23.6934 28.8421 23.5819Z" fill="black"/>
<path opacity="0.83" d="M28.9619 23.5477C30.1219 23.4339 30.9701 22.4014 30.8563 21.2414C30.7426 20.0814 29.71 19.2332 28.5501 19.347C27.3901 19.4607 26.5419 20.4933 26.6557 21.6533C26.7694 22.8132 27.802 23.6614 28.9619 23.5477Z" fill="black"/>
<path opacity="0.84" d="M29.085 23.5055C30.2459 23.3892 31.0927 22.3539 30.9764 21.1931C30.8601 20.0322 29.8248 19.1854 28.6639 19.3017C27.5031 19.418 26.6563 20.4533 26.7726 21.6141C26.8889 22.775 27.9242 23.6218 29.085 23.5055Z" fill="black"/>
<path opacity="0.85" d="M29.2026 23.4737C30.3633 23.3554 31.2083 22.3186 31.09 21.1579C30.9717 19.9973 29.9349 19.1523 28.7742 19.2706C27.6136 19.3889 26.7686 20.4257 26.8869 21.5864C27.0052 22.747 28.042 23.592 29.2026 23.4737Z" fill="black"/>
<path opacity="0.86" d="M29.3235 23.4359C30.4851 23.3153 31.3288 22.2759 31.2082 21.1144C31.0876 19.9529 30.0482 19.1091 28.8866 19.2297C27.7251 19.3504 26.8813 20.3898 27.002 21.5513C27.1226 22.7128 28.162 23.5566 29.3235 23.4359Z" fill="black"/>
<path opacity="0.87" d="M29.4422 23.3979C30.6034 23.275 31.4452 22.234 31.3224 21.0727C31.1995 19.9114 30.1585 19.0696 28.9972 19.1925C27.8359 19.3154 26.9941 20.3564 27.117 21.5177C27.2399 22.679 28.2809 23.5208 29.4422 23.3979Z" fill="black"/>
<path opacity="0.88" d="M29.5609 23.3627C30.7231 23.2376 31.5639 22.1942 31.4389 21.032C31.3138 19.8698 30.2704 19.0291 29.1082 19.1541C27.9461 19.2791 27.1053 20.3226 27.2303 21.4847C27.3553 22.6469 28.3988 23.4877 29.5609 23.3627Z" fill="black"/>
<path opacity="0.89" d="M29.6815 23.327C30.8434 23.1999 31.6824 22.155 31.5553 20.9931C31.4283 19.8311 30.3833 18.9922 29.2214 19.1192C28.0595 19.2463 27.2205 20.2912 27.3476 21.4532C27.4746 22.6151 28.5195 23.454 29.6815 23.327Z" fill="black"/>
<path opacity="0.9" d="M29.8015 23.2889C30.9633 23.1598 31.8004 22.1134 31.6713 20.9517C31.5422 19.79 30.4958 18.9529 29.3341 19.0819C28.1724 19.211 27.3353 20.2574 27.4643 21.4191C27.5934 22.5808 28.6398 23.418 29.8015 23.2889Z" fill="black"/>
<path opacity="0.91" d="M29.9218 23.2543C31.0843 23.1231 31.9204 22.0742 31.7892 20.9116C31.658 19.749 30.6091 18.913 29.4465 19.0442C28.284 19.1754 27.4479 20.2243 27.5791 21.3869C27.7103 22.5494 28.7592 23.3855 29.9218 23.2543Z" fill="black"/>
<path opacity="0.92" d="M30.0393 23.2135C31.2016 23.0803 32.0359 22.03 31.9026 20.8676C31.7694 19.7053 30.7191 18.871 29.5567 19.0043C28.3944 19.1375 27.5601 20.1878 27.6934 21.3502C27.8266 22.5125 28.8769 23.3468 30.0393 23.2135Z" fill="black"/>
<path opacity="0.93" d="M30.1576 23.1817C31.3208 23.0465 32.1542 21.9939 32.019 20.8306C31.8838 19.6674 30.8312 18.834 29.6679 18.9692C28.5047 19.1044 27.6713 20.157 27.8065 21.3203C27.9417 22.4835 28.9943 23.3169 30.1576 23.1817Z" fill="black"/>
<path opacity="0.94" d="M30.2805 23.1398C31.4435 23.0026 32.2751 21.9485 32.1379 20.7855C32.0006 19.6225 30.9466 18.7909 29.7835 18.9282C28.6205 19.0654 27.789 20.1195 27.9262 21.2825C28.0635 22.4455 29.1175 23.277 30.2805 23.1398Z" fill="black"/>
<path opacity="0.95" d="M30.4003 23.1052C31.5642 22.966 32.3949 21.9096 32.2557 20.7457C32.1165 19.5818 31.0602 18.7512 29.8963 18.8904C28.7324 19.0296 27.9017 20.0859 28.0409 21.2498C28.1801 22.4137 29.2365 23.2444 30.4003 23.1052Z" fill="black"/>
<path opacity="0.96" d="M30.5194 23.0682C31.6831 22.9271 32.5121 21.8695 32.3711 20.7058C32.2301 19.5421 31.1724 18.7131 30.0087 18.8541C28.8451 18.9952 28.016 20.0528 28.1571 21.2165C28.2981 22.3802 29.3558 23.2092 30.5194 23.0682Z" fill="black"/>
<path opacity="0.97" d="M30.6368 23.033C31.8013 22.89 32.6295 21.83 32.4865 20.6655C32.3435 19.5009 31.2835 18.6728 30.119 18.8158C28.9544 18.9588 28.1263 20.0187 28.2693 21.1833C28.4123 22.3478 29.4722 23.1759 30.6368 23.033Z" fill="black"/>
<path opacity="0.98" d="M30.754 22.9969C31.9184 22.8523 32.745 21.7912 32.6004 20.6268C32.4558 19.4625 31.3947 18.6358 30.2304 18.7805C29.066 18.9251 28.2394 19.9862 28.384 21.1505C28.5286 22.3149 29.5897 23.1415 30.754 22.9969Z" fill="black"/>
<path opacity="0.99" d="M30.8749 22.9607C32.0401 22.8141 32.8659 21.7507 32.7193 20.5855C32.5727 19.4203 31.5093 18.5945 30.3441 18.7411C29.1789 18.8877 28.3531 19.9511 28.4997 21.1163C28.6463 22.2815 29.7097 23.1073 30.8749 22.9607Z" fill="black"/>
<path d="M30.9918 22.924C32.1568 22.7757 32.9811 21.7112 32.8329 20.5462C32.6846 19.3812 31.6201 18.5569 30.4551 18.7051C29.2901 18.8533 28.4658 19.9179 28.614 21.0829C28.7622 22.2479 29.8268 23.0722 30.9918 22.924Z" fill="black"/>
<path opacity="0.01" d="M30.3166 34.8779C31.417 34.8779 32.3089 33.9859 32.3089 32.8856C32.3089 31.7853 31.417 30.8933 30.3166 30.8933C29.2163 30.8933 28.3244 31.7853 28.3244 32.8856C28.3244 33.9859 29.2163 34.8779 30.3166 34.8779Z" fill="black"/>
<path opacity="0.02" d="M30.3227 34.7557C31.423 34.7557 32.3149 33.8638 32.3149 32.7635C32.3149 31.6632 31.423 30.7712 30.3227 30.7712C29.2224 30.7712 28.3304 31.6632 28.3304 32.7635C28.3304 33.8638 29.2224 34.7557 30.3227 34.7557Z" fill="black"/>
<path opacity="0.03" d="M30.3267 34.6356C31.427 34.6356 32.3189 33.7436 32.3189 32.6433C32.3189 31.543 31.427 30.651 30.3267 30.651C29.2264 30.651 28.3344 31.543 28.3344 32.6433C28.3344 33.7436 29.2264 34.6356 30.3267 34.6356Z" fill="black"/>
<path opacity="0.04" d="M30.3327 34.5135C31.433 34.5135 32.3249 33.6215 32.3249 32.5212C32.3249 31.4209 31.433 30.5289 30.3327 30.5289C29.2324 30.5289 28.3404 31.4209 28.3404 32.5212C28.3404 33.6215 29.2324 34.5135 30.3327 34.5135Z" fill="black"/>
<path opacity="0.05" d="M30.3387 34.3913C31.439 34.3913 32.3309 33.4993 32.3309 32.399C32.3309 31.2987 31.439 30.4067 30.3387 30.4067C29.2384 30.4067 28.3464 31.2987 28.3464 32.399C28.3464 33.4993 29.2384 34.3913 30.3387 34.3913Z" fill="black"/>
<path opacity="0.06" d="M30.3447 34.2712C31.445 34.2712 32.337 33.3792 32.337 32.2789C32.337 31.1786 31.445 30.2866 30.3447 30.2866C29.2444 30.2866 28.3524 31.1786 28.3524 32.2789C28.3524 33.3792 29.2444 34.2712 30.3447 34.2712Z" fill="black"/>
<path opacity="0.07" d="M30.3487 34.151C31.4501 34.151 32.343 33.2582 32.343 32.1568C32.343 31.0553 31.4501 30.1625 30.3487 30.1625C29.2473 30.1625 28.3544 31.0553 28.3544 32.1568C28.3544 33.2582 29.2473 34.151 30.3487 34.151Z" fill="black"/>
<path opacity="0.08" d="M30.3547 34.0309C31.4561 34.0309 32.349 33.138 32.349 32.0366C32.349 30.9352 31.4561 30.0423 30.3547 30.0423C29.2533 30.0423 28.3604 30.9352 28.3604 32.0366C28.3604 33.138 29.2533 34.0309 30.3547 34.0309Z" fill="black"/>
<path opacity="0.09" d="M30.3607 33.9088C31.4621 33.9088 32.355 33.0159 32.355 31.9145C32.355 30.8131 31.4621 29.9202 30.3607 29.9202C29.2593 29.9202 28.3664 30.8131 28.3664 31.9145C28.3664 33.0159 29.2593 33.9088 30.3607 33.9088Z" fill="black"/>
<path opacity="0.1" d="M30.3647 33.7866C31.4661 33.7866 32.359 32.8938 32.359 31.7923C32.359 30.6909 31.4661 29.7981 30.3647 29.7981C29.2633 29.7981 28.3704 30.6909 28.3704 31.7923C28.3704 32.8938 29.2633 33.7866 30.3647 33.7866Z" fill="black"/>
<path opacity="0.11" d="M30.3707 33.6665C31.4721 33.6665 32.365 32.7736 32.365 31.6722C32.365 30.5708 31.4721 29.6779 30.3707 29.6779C29.2693 29.6779 28.3764 30.5708 28.3764 31.6722C28.3764 32.7736 29.2693 33.6665 30.3707 33.6665Z" fill="black"/>
<path opacity="0.12" d="M30.3767 33.5443C31.4781 33.5443 32.371 32.6514 32.371 31.55C32.371 30.4486 31.4781 29.5558 30.3767 29.5558C29.2753 29.5558 28.3824 30.4486 28.3824 31.55C28.3824 32.6514 29.2753 33.5443 30.3767 33.5443Z" fill="black"/>
<path opacity="0.13" d="M30.3807 33.4222C31.4821 33.4222 32.375 32.5293 32.375 31.4279C32.375 30.3265 31.4821 29.4337 30.3807 29.4337C29.2793 29.4337 28.3864 30.3265 28.3864 31.4279C28.3864 32.5293 29.2793 33.4222 30.3807 33.4222Z" fill="black"/>
<path opacity="0.14" d="M30.3867 33.3021C31.4881 33.3021 32.381 32.4092 32.381 31.3078C32.381 30.2064 31.4881 29.3135 30.3867 29.3135C29.2853 29.3135 28.3924 30.2064 28.3924 31.3078C28.3924 32.4092 29.2853 33.3021 30.3867 33.3021Z" fill="black"/>
<path opacity="0.15" d="M30.3927 33.1799C31.4941 33.1799 32.387 32.287 32.387 31.1856C32.387 30.0842 31.4941 29.1913 30.3927 29.1913C29.2913 29.1913 28.3985 30.0842 28.3985 31.1856C28.3985 32.287 29.2913 33.1799 30.3927 33.1799Z" fill="black"/>
<path opacity="0.16" d="M30.3967 33.0618C31.4993 33.0618 32.393 32.168 32.393 31.0655C32.393 29.963 31.4993 29.0692 30.3967 29.0692C29.2942 29.0692 28.4005 29.963 28.4005 31.0655C28.4005 32.168 29.2942 33.0618 30.3967 33.0618Z" fill="black"/>
<path opacity="0.17" d="M30.4027 32.9396C31.5053 32.9396 32.399 32.0459 32.399 30.9434C32.399 29.8408 31.5053 28.9471 30.4027 28.9471C29.3002 28.9471 28.4065 29.8408 28.4065 30.9434C28.4065 32.0459 29.3002 32.9396 30.4027 32.9396Z" fill="black"/>
<path opacity="0.18" d="M30.4088 32.8175C31.5113 32.8175 32.405 31.9237 32.405 30.8212C32.405 29.7187 31.5113 28.825 30.4088 28.825C29.3062 28.825 28.4125 29.7187 28.4125 30.8212C28.4125 31.9237 29.3062 32.8175 30.4088 32.8175Z" fill="black"/>
<path opacity="0.19" d="M30.4148 32.6974C31.5173 32.6974 32.411 31.8036 32.411 30.7011C32.411 29.5986 31.5173 28.7048 30.4148 28.7048C29.3122 28.7048 28.4185 29.5986 28.4185 30.7011C28.4185 31.8036 29.3122 32.6974 30.4148 32.6974Z" fill="black"/>
<path opacity="0.2" d="M30.4188 32.5752C31.5213 32.5752 32.415 31.6815 32.415 30.579C32.415 29.4764 31.5213 28.5827 30.4188 28.5827C29.3163 28.5827 28.4225 29.4764 28.4225 30.579C28.4225 31.6815 29.3163 32.5752 30.4188 32.5752Z" fill="black"/>
<path opacity="0.21" d="M30.4248 32.4531C31.5273 32.4531 32.4211 31.5593 32.4211 30.4568C32.4211 29.3543 31.5273 28.4605 30.4248 28.4605C29.3223 28.4605 28.4285 29.3543 28.4285 30.4568C28.4285 31.5593 29.3223 32.4531 30.4248 32.4531Z" fill="black"/>
<path opacity="0.22" d="M30.4308 32.3329C31.5333 32.3329 32.4271 31.4392 32.4271 30.3366C32.4271 29.2341 31.5333 28.3404 30.4308 28.3404C29.3283 28.3404 28.4345 29.2341 28.4345 30.3366C28.4345 31.4392 29.3283 32.3329 30.4308 32.3329Z" fill="black"/>
<path opacity="0.23" d="M30.4348 32.2108C31.5373 32.2108 32.4311 31.3171 32.4311 30.2145C32.4311 29.112 31.5373 28.2183 30.4348 28.2183C29.3323 28.2183 28.4385 29.112 28.4385 30.2145C28.4385 31.3171 29.3323 32.2108 30.4348 32.2108Z" fill="black"/>
<path opacity="0.24" d="M30.4408 32.0907C31.5433 32.0907 32.4371 31.1969 32.4371 30.0944C32.4371 28.9919 31.5433 28.0981 30.4408 28.0981C29.3383 28.0981 28.4445 28.9919 28.4445 30.0944C28.4445 31.1969 29.3383 32.0907 30.4408 32.0907Z" fill="black"/>
<path opacity="0.25" d="M30.4468 31.9706C31.5504 31.9706 32.4451 31.0759 32.4451 29.9723C32.4451 28.8687 31.5504 27.974 30.4468 27.974C29.3432 27.974 28.4485 28.8687 28.4485 29.9723C28.4485 31.0759 29.3432 31.9706 30.4468 31.9706Z" fill="black"/>
<path opacity="0.26" d="M30.4508 31.8484C31.5544 31.8484 32.4491 30.9537 32.4491 29.8501C32.4491 28.7465 31.5544 27.8518 30.4508 27.8518C29.3472 27.8518 28.4525 28.7465 28.4525 29.8501C28.4525 30.9537 29.3472 31.8484 30.4508 31.8484Z" fill="black"/>
<path opacity="0.27" d="M30.4568 31.7283C31.5604 31.7283 32.4551 30.8336 32.4551 29.73C32.4551 28.6264 31.5604 27.7317 30.4568 27.7317C29.3532 27.7317 28.4585 28.6264 28.4585 29.73C28.4585 30.8336 29.3532 31.7283 30.4568 31.7283Z" fill="black"/>
<path opacity="0.28" d="M30.4628 31.6061C31.5664 31.6061 32.4611 30.7115 32.4611 29.6078C32.4611 28.5042 31.5664 27.6096 30.4628 27.6096C29.3592 27.6096 28.4645 28.5042 28.4645 29.6078C28.4645 30.7115 29.3592 31.6061 30.4628 31.6061Z" fill="black"/>
<path opacity="0.29" d="M30.4668 31.484C31.5704 31.484 32.4651 30.5893 32.4651 29.4857C32.4651 28.3821 31.5704 27.4874 30.4668 27.4874C29.3632 27.4874 28.4685 28.3821 28.4685 29.4857C28.4685 30.5893 29.3632 31.484 30.4668 31.484Z" fill="black"/>
<path opacity="0.3" d="M30.4728 31.3638C31.5764 31.3638 32.4711 30.4692 32.4711 29.3656C32.4711 28.2619 31.5764 27.3673 30.4728 27.3673C29.3692 27.3673 28.4745 28.2619 28.4745 29.3656C28.4745 30.4692 29.3692 31.3638 30.4728 31.3638Z" fill="black"/>
<path opacity="0.31" d="M30.4788 31.2417C31.5825 31.2417 32.4771 30.3471 32.4771 29.2434C32.4771 28.1398 31.5825 27.2451 30.4788 27.2451C29.3752 27.2451 28.4806 28.1398 28.4806 29.2434C28.4806 30.3471 29.3752 31.2417 30.4788 31.2417Z" fill="black"/>
<path opacity="0.32" d="M30.4848 31.1216C31.5885 31.1216 32.4831 30.2269 32.4831 29.1233C32.4831 28.0197 31.5885 27.125 30.4848 27.125C29.3812 27.125 28.4866 28.0197 28.4866 29.1233C28.4866 30.2269 29.3812 31.1216 30.4848 31.1216Z" fill="black"/>
<path opacity="0.33" d="M30.4888 30.9994C31.5925 30.9994 32.4871 30.1048 32.4871 29.0012C32.4871 27.8975 31.5925 27.0029 30.4888 27.0029C29.3852 27.0029 28.4906 27.8975 28.4906 29.0012C28.4906 30.1048 29.3852 30.9994 30.4888 30.9994Z" fill="black"/>
<path opacity="0.34" d="M30.4948 30.8773C31.5985 30.8773 32.4931 29.9826 32.4931 28.879C32.4931 27.7754 31.5985 26.8807 30.4948 26.8807C29.3912 26.8807 28.4966 27.7754 28.4966 28.879C28.4966 29.9826 29.3912 30.8773 30.4948 30.8773Z" fill="black"/>
<path opacity="0.35" d="M30.5009 30.7591C31.6056 30.7591 32.5011 29.8636 32.5011 28.7589C32.5011 27.6541 31.6056 26.7586 30.5009 26.7586C29.3961 26.7586 28.5006 27.6541 28.5006 28.7589C28.5006 29.8636 29.3961 30.7591 30.5009 30.7591Z" fill="black"/>
<path opacity="0.36" d="M30.5049 30.637C31.6096 30.637 32.5051 29.7415 32.5051 28.6367C32.5051 27.532 31.6096 26.6364 30.5049 26.6364C29.4001 26.6364 28.5046 27.532 28.5046 28.6367C28.5046 29.7415 29.4001 30.637 30.5049 30.637Z" fill="black"/>
<path opacity="0.37" d="M30.5109 30.5149C31.6156 30.5149 32.5112 29.6193 32.5112 28.5146C32.5112 27.4099 31.6156 26.5143 30.5109 26.5143C29.4061 26.5143 28.5106 27.4099 28.5106 28.5146C28.5106 29.6193 29.4061 30.5149 30.5109 30.5149Z" fill="black"/>
<path opacity="0.38" d="M30.5169 30.3947C31.6216 30.3947 32.5172 29.4992 32.5172 28.3944C32.5172 27.2897 31.6216 26.3942 30.5169 26.3942C29.4121 26.3942 28.5166 27.2897 28.5166 28.3944C28.5166 29.4992 29.4121 30.3947 30.5169 30.3947Z" fill="black"/>
<path opacity="0.39" d="M30.5209 30.2726C31.6256 30.2726 32.5212 29.377 32.5212 28.2723C32.5212 27.1676 31.6256 26.272 30.5209 26.272C29.4161 26.272 28.5206 27.1676 28.5206 28.2723C28.5206 29.377 29.4161 30.2726 30.5209 30.2726Z" fill="black"/>
<path opacity="0.4" d="M30.5269 30.1525C31.6316 30.1525 32.5272 29.2569 32.5272 28.1522C32.5272 27.0474 31.6316 26.1519 30.5269 26.1519C29.4222 26.1519 28.5266 27.0474 28.5266 28.1522C28.5266 29.2569 29.4222 30.1525 30.5269 30.1525Z" fill="black"/>
<path opacity="0.41" d="M30.5329 30.0303C31.6376 30.0303 32.5332 29.1348 32.5332 28.03C32.5332 26.9253 31.6376 26.0298 30.5329 26.0298C29.4282 26.0298 28.5326 26.9253 28.5326 28.03C28.5326 29.1348 29.4282 30.0303 30.5329 30.0303Z" fill="black"/>
<path opacity="0.42" d="M30.5389 29.9082C31.6436 29.9082 32.5392 29.0126 32.5392 27.9079C32.5392 26.8032 31.6436 25.9076 30.5389 25.9076C29.4342 25.9076 28.5386 26.8032 28.5386 27.9079C28.5386 29.0126 29.4342 29.9082 30.5389 29.9082Z" fill="black"/>
<path opacity="0.43" d="M30.5429 29.788C31.6476 29.788 32.5432 28.8925 32.5432 27.7877C32.5432 26.683 31.6476 25.7874 30.5429 25.7874C29.4382 25.7874 28.5426 26.683 28.5426 27.7877C28.5426 28.8925 29.4382 29.788 30.5429 29.788Z" fill="black"/>
<path opacity="0.44" d="M30.5489 29.6679C31.6548 29.6679 32.5512 28.7715 32.5512 27.6656C32.5512 26.5598 31.6548 25.6633 30.5489 25.6633C29.4431 25.6633 28.5466 26.5598 28.5466 27.6656C28.5466 28.7715 29.4431 29.6679 30.5489 29.6679Z" fill="black"/>
<path opacity="0.45" d="M30.5549 29.5458C31.6607 29.5458 32.5572 28.6493 32.5572 27.5435C32.5572 26.4377 31.6607 25.5412 30.5549 25.5412C29.4491 25.5412 28.5526 26.4377 28.5526 27.5435C28.5526 28.6493 29.4491 29.5458 30.5549 29.5458Z" fill="black"/>
<path opacity="0.46" d="M30.5589 29.4256C31.6648 29.4256 32.5612 28.5292 32.5612 27.4233C32.5612 26.3175 31.6648 25.4211 30.5589 25.4211C29.4531 25.4211 28.5566 26.3175 28.5566 27.4233C28.5566 28.5292 29.4531 29.4256 30.5589 29.4256Z" fill="black"/>
<path opacity="0.47" d="M30.5649 29.3035C31.6708 29.3035 32.5672 28.407 32.5672 27.3012C32.5672 26.1953 31.6708 25.2989 30.5649 25.2989C29.4591 25.2989 28.5626 26.1953 28.5626 27.3012C28.5626 28.407 29.4591 29.3035 30.5649 29.3035Z" fill="black"/>
<path opacity="0.48" d="M30.5709 29.1833C31.6768 29.1833 32.5732 28.2869 32.5732 27.1811C32.5732 26.0752 31.6768 25.1788 30.5709 25.1788C29.4651 25.1788 28.5686 26.0752 28.5686 27.1811C28.5686 28.2869 29.4651 29.1833 30.5709 29.1833Z" fill="black"/>
<path opacity="0.49" d="M30.5749 29.0612C31.6808 29.0612 32.5772 28.1648 32.5772 27.0589C32.5772 25.9531 31.6808 25.0566 30.5749 25.0566C29.4691 25.0566 28.5727 25.9531 28.5727 27.0589C28.5727 28.1648 29.4691 29.0612 30.5749 29.0612Z" fill="black"/>
<path opacity="0.5" d="M30.5809 28.9391C31.6868 28.9391 32.5832 28.0426 32.5832 26.9368C32.5832 25.831 31.6868 24.9345 30.5809 24.9345C29.4751 24.9345 28.5787 25.831 28.5787 26.9368C28.5787 28.0426 29.4751 28.9391 30.5809 28.9391Z" fill="black"/>
<path opacity="0.5" d="M30.587 28.8189C31.6928 28.8189 32.5892 27.9225 32.5892 26.8166C32.5892 25.7108 31.6928 24.8144 30.587 24.8144C29.4811 24.8144 28.5847 25.7108 28.5847 26.8166C28.5847 27.9225 29.4811 28.8189 30.587 28.8189Z" fill="black"/>
<path opacity="0.51" d="M31.1033 28.6302C32.1722 28.3468 32.8089 27.2505 32.5255 26.1816C32.2421 25.1127 31.1458 24.4759 30.0769 24.7594C29.008 25.0428 28.3713 26.139 28.6547 27.2079C28.9381 28.2768 30.0344 28.9136 31.1033 28.6302Z" fill="black"/>
<path opacity="0.52" d="M31.1042 28.5099C32.1752 28.2303 32.8168 27.1354 32.5372 26.0643C32.2577 24.9933 31.1627 24.3517 30.0917 24.6313C29.0206 24.9109 28.379 26.0058 28.6586 27.0768C28.9382 28.1479 30.0331 28.7895 31.1042 28.5099Z" fill="black"/>
<path opacity="0.53" d="M31.1014 28.3931C32.1735 28.1176 32.8194 27.0252 32.5439 25.9531C32.2684 24.881 31.176 24.2352 30.1039 24.5106C29.0317 24.7861 28.3859 25.8786 28.6614 26.9507C28.9369 28.0228 30.0293 28.6686 31.1014 28.3931Z" fill="black"/>
<path opacity="0.54" d="M31.1 28.2715C32.1732 28 32.823 26.9099 32.5514 25.8368C32.2799 24.7637 31.1898 24.1139 30.1167 24.3854C29.0436 24.657 28.3938 25.747 28.6653 26.8202C28.9369 27.8933 30.0269 28.5431 31.1 28.2715Z" fill="black"/>
<path opacity="0.55" d="M31.0976 28.1559C32.1717 27.8883 32.8255 26.8007 32.5579 25.7265C32.2903 24.6524 31.2026 23.9986 30.1285 24.2663C29.0544 24.5339 28.4006 25.6215 28.6682 26.6956C28.9358 27.7697 30.0235 28.4235 31.0976 28.1559Z" fill="black"/>
<path opacity="0.56" d="M31.0965 28.0331C32.1715 27.7693 32.8291 26.6839 32.5652 25.6088C32.3014 24.5338 31.216 23.8762 30.141 24.1401C29.0659 24.4039 28.4084 25.4893 28.6722 26.5643C28.9361 27.6394 30.0214 28.297 31.0965 28.0331Z" fill="black"/>
<path opacity="0.57" d="M31.0957 27.9139C32.1717 27.6538 32.8331 26.5707 32.573 25.4948C32.3129 24.4188 31.2298 23.7574 30.1538 24.0175C29.0779 24.2776 28.4165 25.3607 28.6766 26.4367C28.9367 27.5126 30.0198 28.174 31.0957 27.9139Z" fill="black"/>
<path opacity="0.58" d="M31.0954 27.7924C32.1722 27.5358 32.8372 26.4549 32.5806 25.3781C32.3241 24.3013 31.2432 23.6364 30.1664 23.8929C29.0896 24.1494 28.4247 25.2303 28.6812 26.3071C28.9377 27.3839 30.0186 28.0489 31.0954 27.7924Z" fill="black"/>
<path opacity="0.59" d="M31.0949 27.672C32.1726 27.4191 32.8411 26.3404 32.5882 25.2628C32.3352 24.1851 31.2565 23.5166 30.1789 23.7695C29.1013 24.0225 28.4327 25.1011 28.6857 26.1788C28.9386 27.2564 30.0173 27.925 31.0949 27.672Z" fill="black"/>
<path opacity="0.6" d="M31.0929 27.5533C32.1714 27.304 32.8435 26.2275 32.5941 25.149C32.3447 24.0706 31.2683 23.3984 30.1898 23.6478C29.1113 23.8972 28.4392 24.9736 28.6886 26.0521C28.9379 27.1306 30.0144 27.8027 31.0929 27.5533Z" fill="black"/>
<path opacity="0.61" d="M31.0916 27.4364C32.172 27.1901 32.8481 26.1147 32.6019 25.0344C32.3557 23.954 31.2803 23.2779 30.1999 23.5241C29.1196 23.7704 28.4434 24.8458 28.6897 25.9261C28.9359 27.0064 30.0113 27.6826 31.0916 27.4364Z" fill="black"/>
<path opacity="0.62" d="M31.0898 27.3167C32.171 27.0738 32.8505 26.0006 32.6077 24.9195C32.3648 23.8384 31.2915 23.1588 30.2104 23.4017C29.1293 23.6445 28.4498 24.7178 28.6926 25.7989C28.9355 26.88 30.0087 27.5595 31.0898 27.3167Z" fill="black"/>
<path opacity="0.63" d="M31.0924 27.1964C32.1742 26.9568 32.8569 25.8855 32.6173 24.8037C32.3777 23.7219 31.3064 23.0392 30.2246 23.2788C29.1428 23.5184 28.46 24.5897 28.6997 25.6715C28.9393 26.7533 30.0106 27.4361 31.0924 27.1964Z" fill="black"/>
<path opacity="0.64" d="M31.0929 27.0739C32.1754 26.8375 32.8613 25.7682 32.6249 24.6857C32.3885 23.6032 31.3192 22.9173 30.2367 23.1537C29.1542 23.3901 28.4683 24.4594 28.7047 25.5419C28.9411 26.6244 30.0103 27.3103 31.0929 27.0739Z" fill="black"/>
<path opacity="0.65" d="M31.0898 26.9555C32.173 26.7223 32.8621 25.6551 32.6289 24.5719C32.3957 23.4887 31.3285 22.7996 30.2453 23.0328C29.162 23.266 28.473 24.3332 28.7062 25.4164C28.9394 26.4997 30.0066 27.1887 31.0898 26.9555Z" fill="black"/>
<path opacity="0.66" d="M31.091 26.8341C32.1749 26.6039 32.8669 25.5387 32.6367 24.4548C32.4065 23.3709 31.3413 22.6789 30.2574 22.9091C29.1735 23.1393 28.4815 24.2045 28.7117 25.2884C28.9419 26.3723 30.0071 27.0643 31.091 26.8341Z" fill="black"/>
<path opacity="0.67" d="M31.0921 26.7145C32.1766 26.4874 32.8717 25.4241 32.6445 24.3396C32.4173 23.255 31.354 22.56 30.2695 22.7872C29.185 23.0143 28.49 24.0777 28.7171 25.1622C28.9443 26.2467 30.0076 26.9417 31.0921 26.7145Z" fill="black"/>
<path opacity="0.68" d="M31.0897 26.5951C32.1749 26.371 32.8728 25.3096 32.6487 24.2245C32.4246 23.1393 31.3632 22.4413 30.2781 22.6655C29.1929 22.8896 28.4949 23.951 28.7191 25.0361C28.9432 26.1213 30.0046 26.8192 31.0897 26.5951Z" fill="black"/>
<path opacity="0.69" d="M31.0915 26.4728C32.1772 26.2515 32.878 25.192 32.6567 24.1062C32.4354 23.0205 31.3759 22.3197 30.2902 22.541C29.2044 22.7623 28.5037 23.8219 28.725 24.9076C28.9463 25.9933 30.0058 26.6941 31.0915 26.4728Z" fill="black"/>
<path opacity="0.7" d="M31.0917 26.3542C32.1791 26.1356 32.8833 25.0768 32.6647 23.9894C32.446 22.9021 31.3873 22.1978 30.2999 22.4165C29.2125 22.6351 28.5082 23.6939 28.7269 24.7813C28.9456 25.8687 30.0043 26.5729 31.0917 26.3542Z" fill="black"/>
<path opacity="0.71" d="M31.0903 26.2359C32.1783 26.02 32.8853 24.9631 32.6695 23.8752C32.4536 22.7872 31.3967 22.0802 30.3088 22.296C29.2208 22.5118 28.5138 23.5688 28.7296 24.6567C28.9454 25.7447 30.0024 26.4517 31.0903 26.2359Z" fill="black"/>
<path opacity="0.72" d="M31.0889 26.1189C32.1774 25.9059 32.8872 24.8508 32.6742 23.7623C32.4612 22.6738 31.4062 21.964 30.3177 22.177C29.2291 22.39 28.5194 23.445 28.7323 24.5335C28.9453 25.6221 30.0004 26.3318 31.0889 26.1189Z" fill="black"/>
<path opacity="0.73" d="M31.0913 25.9956C32.1803 25.7852 32.8927 24.7319 32.6824 23.6429C32.4721 22.5539 31.4187 21.8415 30.3297 22.0518C29.2407 22.2621 28.5283 23.3155 28.7386 24.4045C28.9489 25.4935 30.0023 26.2059 31.0913 25.9956Z" fill="black"/>
<path opacity="0.74" d="M31.0905 25.8784C32.18 25.6707 32.8949 24.6192 32.6873 23.5296C32.4796 22.4401 31.4281 21.7252 30.3385 21.9328C29.249 22.1404 28.5341 23.192 28.7417 24.2816C28.9494 25.3711 30.0009 26.086 31.0905 25.8784Z" fill="black"/>
<path opacity="0.75" d="M31.0931 25.7526C32.1831 25.5474 32.9004 24.4974 32.6952 23.4074C32.49 22.3174 31.4401 21.6001 30.3501 21.8053C29.2601 22.0105 28.5428 23.0604 28.7479 24.1504C28.9531 25.2404 30.003 25.9577 31.0931 25.7526Z" fill="black"/>
<path opacity="0.76" d="M31.0926 25.6347C32.1831 25.4321 32.903 24.3839 32.7005 23.2934C32.498 22.2029 31.4498 21.4831 30.3593 21.6856C29.2687 21.8881 28.5489 22.9363 28.7514 24.0268C28.9539 25.1173 30.0021 25.8372 31.0926 25.6347Z" fill="black"/>
<path opacity="0.77" d="M31.0943 25.5144C32.1852 25.3144 32.9075 24.2679 32.7075 23.1769C32.5074 22.0859 31.4609 21.3637 30.3699 21.5637C29.2789 21.7637 28.5567 22.8103 28.7567 23.9013C28.9568 24.9922 30.0033 25.7145 31.0943 25.5144Z" fill="black"/>
<path opacity="0.78" d="M31.094 25.3944C32.1854 25.1969 32.91 24.152 32.7125 23.0605C32.5149 21.9691 31.47 21.2445 30.3786 21.4421C29.2872 21.6396 28.5626 22.6845 28.7601 23.776C28.9577 24.8674 30.0026 25.592 31.094 25.3944Z" fill="black"/>
<path opacity="0.79" d="M31.0978 25.2718C32.1897 25.0766 32.9165 24.0332 32.7212 22.9413C32.5259 21.8495 31.4825 21.1227 30.3907 21.318C29.2989 21.5132 28.5721 22.5566 28.7673 23.6485C28.9626 24.7403 30.006 25.4671 31.0978 25.2718Z" fill="black"/>
<path opacity="0.8" d="M31.0966 25.1571C32.19 24.9641 32.9199 23.9213 32.7269 22.828C32.5339 21.7346 31.4911 21.0047 30.3978 21.1977C29.3044 21.3907 28.5745 22.4335 28.7675 23.5268C28.9605 24.6202 30.0033 25.3501 31.0966 25.1571Z" fill="black"/>
<path opacity="0.81" d="M31.0968 25.0345C32.1906 24.8438 32.9227 23.8026 32.732 22.7088C32.5413 21.6151 31.5 20.883 30.4062 21.0737C29.3125 21.2644 28.5804 22.3056 28.7711 23.3994C28.9618 24.4932 30.0031 25.2252 31.0968 25.0345Z" fill="black"/>
<path opacity="0.82" d="M31.0997 24.9155C32.1938 24.7271 32.9281 23.6873 32.7397 22.5932C32.5513 21.499 31.5116 20.7648 30.4174 20.9532C29.3233 21.1416 28.589 22.1813 28.7774 23.2755C28.9658 24.3696 30.0055 25.1039 31.0997 24.9155Z" fill="black"/>
<path opacity="0.83" d="M31.1039 24.7883C32.1985 24.602 32.9347 23.5637 32.7484 22.4692C32.5621 21.3746 31.5238 20.6384 30.4293 20.8247C29.3348 21.011 28.5985 22.0493 28.7848 23.1438C28.9711 24.2383 30.0094 24.9746 31.1039 24.7883Z" fill="black"/>
<path opacity="0.84" d="M31.1012 24.6713C32.1961 24.4873 32.9345 23.4505 32.7505 22.3556C32.5665 21.2607 31.5298 20.5223 30.4349 20.7063C29.34 20.8903 28.6015 21.9271 28.7855 23.022C28.9696 24.1169 30.0063 24.8553 31.1012 24.6713Z" fill="black"/>
<path opacity="0.85" d="M31.1182 24.7544C32.2173 24.5767 32.9644 23.5417 32.7867 22.4425C32.6091 21.3434 31.574 20.5964 30.4749 20.774C29.3757 20.9516 28.6287 21.9867 28.8063 23.0858C28.984 24.185 30.019 24.932 31.1182 24.7544Z" fill="black"/>
<path opacity="0.86" d="M31.1078 24.4282C32.2034 24.2484 32.9458 23.2145 32.766 22.1189C32.5862 21.0233 31.5522 20.2809 30.4566 20.4607C29.361 20.6405 28.6186 21.6744 28.7984 22.77C28.9782 23.8656 30.0122 24.608 31.1078 24.4282Z" fill="black"/>
<path opacity="0.87" d="M31.1097 24.3084C32.2056 24.1307 32.95 23.0983 32.7723 22.0023C32.5946 20.9064 31.5621 20.162 30.4662 20.3397C29.3702 20.5174 28.6259 21.5499 28.8036 22.6458C28.9813 23.7418 30.0137 24.4861 31.1097 24.3084Z" fill="black"/>
<path opacity="0.88" d="M31.2339 24.1948C32.333 24.0172 33.0801 22.9821 32.9024 21.883C32.7248 20.7838 31.6898 20.0368 30.5906 20.2144C29.4914 20.3921 28.7444 21.4271 28.9221 22.5263C29.0997 23.6254 30.1347 24.3725 31.2339 24.1948Z" fill="black"/>
<path opacity="0.89" d="M31.1136 24.067C32.2113 23.8931 32.9602 22.8623 32.7863 21.7646C32.6125 20.667 31.5817 19.9181 30.484 20.0919C29.3863 20.2658 28.6374 21.2966 28.8113 22.3942C28.9851 23.4919 30.0159 24.2408 31.1136 24.067Z" fill="black"/>
<path opacity="0.9" d="M31.1125 23.9509C32.2105 23.7791 32.9614 22.7498 32.7896 21.6518C32.6179 20.5537 31.5886 19.8029 30.4905 19.9746C29.3925 20.1464 28.6416 21.1757 28.8134 22.2737C28.9851 23.3717 30.0145 24.1226 31.1125 23.9509Z" fill="black"/>
<path opacity="0.91" d="M31.1148 23.8291C32.2131 23.6592 32.9658 22.6312 32.7959 21.5329C32.6261 20.4346 31.5981 19.6819 30.4998 19.8517C29.4014 20.0216 28.6488 21.0496 28.8186 22.1479C28.9884 23.2462 30.0165 23.9989 31.1148 23.8291Z" fill="black"/>
<path opacity="0.92" d="M31.1173 23.7068C32.2159 23.5389 32.9704 22.5122 32.8025 21.4136C32.6346 20.315 31.6079 19.5605 30.5093 19.7284C29.4107 19.8963 28.6562 20.923 28.8241 22.0216C28.992 23.1202 30.0187 23.8747 31.1173 23.7068Z" fill="black"/>
<path opacity="0.93" d="M31.1711 23.5975C32.2713 23.4308 33.0281 22.4038 32.8614 21.3035C32.6947 20.2033 31.6676 19.4465 30.5674 19.6132C29.4671 19.7799 28.7104 20.807 28.8771 21.9072C29.0438 23.0075 30.0708 23.7643 31.1711 23.5975Z" fill="black"/>
<path opacity="0.94" d="M31.121 23.4624C32.2202 23.2981 32.978 22.2739 32.8138 21.1747C32.6495 20.0756 31.6253 19.3177 30.5261 19.482C29.427 19.6463 28.6691 20.6705 28.8334 21.7696C28.9976 22.8688 30.0218 23.6266 31.121 23.4624Z" fill="black"/>
<path opacity="0.95" d="M31.1228 23.3458C32.2222 23.1835 32.9819 22.1606 32.8195 21.0611C32.6572 19.9617 31.6343 19.202 30.5349 19.3644C29.4354 19.5267 28.6758 20.5496 28.8381 21.6491C29.0005 22.7485 30.0234 23.5082 31.1228 23.3458Z" fill="black"/>
<path opacity="0.96" d="M31.1259 23.2233C32.2256 23.0627 32.9868 22.041 32.8262 20.9413C32.6656 19.8416 31.6439 19.0803 30.5442 19.2409C29.4445 19.4016 28.6832 20.4232 28.8439 21.5229C29.0045 22.6226 30.0262 23.3839 31.1259 23.2233Z" fill="black"/>
<path opacity="0.97" d="M31.1272 23.1009C32.2272 22.942 32.9901 21.9216 32.8312 20.8216C32.6723 19.7217 31.6518 18.9588 30.5518 19.1177C29.4519 19.2766 28.689 20.2971 28.8479 21.397C29.0068 22.497 30.0273 23.2598 31.1272 23.1009Z" fill="black"/>
<path opacity="0.98" d="M31.1315 22.9822C32.2328 22.8249 32.998 21.8046 32.8407 20.7033C32.6833 19.602 31.663 18.8367 30.5617 18.9941C29.4605 19.1514 28.6952 20.1717 28.8525 21.273C29.0099 22.3743 30.0302 23.1395 31.1315 22.9822Z" fill="black"/>
<path opacity="0.99" d="M31.1334 22.8614C32.235 22.7058 33.0018 21.6867 32.8462 20.5852C32.6906 19.4837 31.6715 18.7168 30.57 18.8724C29.4684 19.028 28.7016 20.0471 28.8572 21.1486C29.0128 22.2502 30.0319 23.017 31.1334 22.8614Z" fill="black"/>
<path d="M31.1357 22.7406C32.2374 22.5867 33.0059 21.5688 32.852 20.467C32.6982 19.3652 31.6803 18.5968 30.5785 18.7507C29.4767 18.9045 28.7083 19.9224 28.8621 21.0242C29.016 22.126 30.0339 22.8944 31.1357 22.7406Z" fill="black"/>
<path opacity="0.01" d="M20.121 4.6353C21.2888 4.6353 22.2354 3.68864 22.2354 2.52088C22.2354 1.35312 21.2888 0.406464 20.121 0.406464C18.9532 0.406464 18.0066 1.35312 18.0066 2.52088C18.0066 3.68864 18.9532 4.6353 20.121 4.6353Z" fill="black"/>
<path opacity="0.02" d="M19.4302 4.48713C20.598 4.48713 21.5446 3.54048 21.5446 2.37272C21.5446 1.20496 20.598 0.258301 19.4302 0.258301C18.2624 0.258301 17.3158 1.20496 17.3158 2.37272C17.3158 3.54048 18.2624 4.48713 19.4302 4.48713Z" fill="black"/>
<path opacity="0.03" d="M18.7374 4.37101C19.9052 4.37101 20.8518 3.42436 20.8518 2.2566C20.8518 1.08884 19.9052 0.142181 18.7374 0.142181C17.5697 0.142181 16.623 1.08884 16.623 2.2566C16.623 3.42436 17.5697 4.37101 18.7374 4.37101Z" fill="black"/>
<path opacity="0.04" d="M18.0466 4.29091C19.2144 4.29091 20.161 3.34425 20.161 2.17649C20.161 1.00873 19.2144 0.0620728 18.0466 0.0620728C16.8789 0.0620728 15.9322 1.00873 15.9322 2.17649C15.9322 3.34425 16.8789 4.29091 18.0466 4.29091Z" fill="black"/>
<path opacity="0.05" d="M17.3598 4.24287C18.5276 4.24287 19.4743 3.29621 19.4743 2.12845C19.4743 0.960695 18.5276 0.0140381 17.3598 0.0140381C16.1921 0.0140381 15.2454 0.960695 15.2454 2.12845C15.2454 3.29621 16.1921 4.24287 17.3598 4.24287Z" fill="black"/>
<path opacity="0.06" d="M16.6731 4.22883C17.8408 4.22883 18.7875 3.28218 18.7875 2.11442C18.7875 0.946657 17.8408 0 16.6731 0C15.5053 0 14.5586 0.946657 14.5586 2.11442C14.5586 3.28218 15.5053 4.22883 16.6731 4.22883Z" fill="black"/>
<path opacity="0.07" d="M15.9923 4.24684C17.16 4.24684 18.1067 3.30018 18.1067 2.13242C18.1067 0.964662 17.16 0.0180054 15.9923 0.0180054C14.8245 0.0180054 13.8779 0.964662 13.8779 2.13242C13.8779 3.30018 14.8245 4.24684 15.9923 4.24684Z" fill="black"/>
<path opacity="0.08" d="M15.3155 4.2949C16.4833 4.2949 17.4299 3.34825 17.4299 2.18049C17.4299 1.01273 16.4833 0.0660706 15.3155 0.0660706C14.1477 0.0660706 13.2011 1.01273 13.2011 2.18049C13.2011 3.34825 14.1477 4.2949 15.3155 4.2949Z" fill="black"/>
<path opacity="0.09" d="M14.6447 4.377C15.8125 4.377 16.7592 3.43034 16.7592 2.26258C16.7592 1.09482 15.8125 0.148163 14.6447 0.148163C13.477 0.148163 12.5303 1.09482 12.5303 2.26258C12.5303 3.43034 13.477 4.377 14.6447 4.377Z" fill="black"/>
<path opacity="0.1" d="M13.98 4.48713C15.1477 4.48713 16.0944 3.54048 16.0944 2.37272C16.0944 1.20496 15.1477 0.258301 13.98 0.258301C12.8122 0.258301 11.8656 1.20496 11.8656 2.37272C11.8656 3.54048 12.8122 4.48713 13.98 4.48713Z" fill="black"/>
<path opacity="0.11" d="M13.3252 4.62928C14.493 4.62928 15.4396 3.68263 15.4396 2.51487C15.4396 1.34711 14.493 0.400452 13.3252 0.400452C12.1575 0.400452 11.2108 1.34711 11.2108 2.51487C11.2108 3.68263 12.1575 4.62928 13.3252 4.62928Z" fill="black"/>
<path opacity="0.12" d="M12.6765 4.79948C13.8442 4.79948 14.7909 3.85282 14.7909 2.68506C14.7909 1.5173 13.8442 0.570648 12.6765 0.570648C11.5087 0.570648 10.5621 1.5173 10.5621 2.68506C10.5621 3.85282 11.5087 4.79948 12.6765 4.79948Z" fill="black"/>
<path opacity="0.13" d="M12.0398 4.99971C13.2075 4.99971 14.1542 4.05305 14.1542 2.88529C14.1542 1.71753 13.2075 0.770874 12.0398 0.770874C10.872 0.770874 9.92534 1.71753 9.92534 2.88529C9.92534 4.05305 10.872 4.99971 12.0398 4.99971Z" fill="black"/>
<path opacity="0.14" d="M11.413 5.22798C12.5808 5.22798 13.5275 4.28132 13.5275 3.11356C13.5275 1.9458 12.5808 0.999146 11.413 0.999146C10.2453 0.999146 9.29863 1.9458 9.29863 3.11356C9.29863 4.28132 10.2453 5.22798 11.413 5.22798Z" fill="black"/>
<path opacity="0.15" d="M10.7963 5.48426C11.9641 5.48426 12.9108 4.53761 12.9108 3.36985C12.9108 2.20209 11.9641 1.25543 10.7963 1.25543C9.62858 1.25543 8.68192 2.20209 8.68192 3.36985C8.68192 4.53761 9.62858 5.48426 10.7963 5.48426Z" fill="black"/>
<path opacity="0.16" d="M10.1936 5.7686C11.3614 5.7686 12.3081 4.82194 12.3081 3.65418C12.3081 2.48642 11.3614 1.53976 10.1936 1.53976C9.02589 1.53976 8.07923 2.48642 8.07923 3.65418C8.07923 4.82194 9.02589 5.7686 10.1936 5.7686Z" fill="black"/>
<path opacity="0.17" d="M9.60498 6.07896C10.7727 6.07896 11.7194 5.1323 11.7194 3.96454C11.7194 2.79678 10.7727 1.85013 9.60498 1.85013C8.43722 1.85013 7.49056 2.79678 7.49056 3.96454C7.49056 5.1323 8.43722 6.07896 9.60498 6.07896Z" fill="black"/>
<path opacity="0.18" d="M9.03232 6.41734C10.2001 6.41734 11.1467 5.47068 11.1467 4.30292C11.1467 3.13516 10.2001 2.18851 9.03232 2.18851C7.86456 2.18851 6.91791 3.13516 6.91791 4.30292C6.91791 5.47068 7.86456 6.41734 9.03232 6.41734Z" fill="black"/>
<path opacity="0.19" d="M8.47368 6.77977C9.64144 6.77977 10.5881 5.83311 10.5881 4.66535C10.5881 3.49759 9.64144 2.55093 8.47368 2.55093C7.30592 2.55093 6.35927 3.49759 6.35927 4.66535C6.35927 5.83311 7.30592 6.77977 8.47368 6.77977Z" fill="black"/>
<path opacity="0.2" d="M7.93106 7.16819C9.09882 7.16819 10.0455 6.22154 10.0455 5.05378C10.0455 3.88602 9.09882 2.93936 7.93106 2.93936C6.7633 2.93936 5.81665 3.88602 5.81665 5.05378C5.81665 6.22154 6.7633 7.16819 7.93106 7.16819Z" fill="black"/>
<path opacity="0.21" d="M7.40647 7.58067C8.57423 7.58067 9.52088 6.63401 9.52088 5.46625C9.52088 4.29849 8.57423 3.35184 7.40647 3.35184C6.23871 3.35184 5.29205 4.29849 5.29205 5.46625C5.29205 6.63401 6.23871 7.58067 7.40647 7.58067Z" fill="black"/>
<path opacity="0.22" d="M6.90189 8.01918C8.06965 8.01918 9.0163 7.07252 9.0163 5.90476C9.0163 4.737 8.06965 3.79034 6.90189 3.79034C5.73413 3.79034 4.78747 4.737 4.78747 5.90476C4.78747 7.07252 5.73413 8.01918 6.90189 8.01918Z" fill="black"/>
<path opacity="0.23" d="M6.41533 8.47969C7.58309 8.47969 8.52975 7.53303 8.52975 6.36527C8.52975 5.19751 7.58309 4.25085 6.41533 4.25085C5.24757 4.25085 4.30091 5.19751 4.30091 6.36527C4.30091 7.53303 5.24757 8.47969 6.41533 8.47969Z" fill="black"/>
<path opacity="0.24" d="M5.9488 8.96425C7.11656 8.96425 8.06321 8.01759 8.06321 6.84983C8.06321 5.68207 7.11656 4.73541 5.9488 4.73541C4.78104 4.73541 3.83438 5.68207 3.83438 6.84983C3.83438 8.01759 4.78104 8.96425 5.9488 8.96425Z" fill="black"/>
<path opacity="0.25" d="M5.50429 9.46882C6.67094 9.46882 7.6167 8.52306 7.6167 7.3564C7.6167 6.18975 6.67094 5.24399 5.50429 5.24399C4.33764 5.24399 3.39188 6.18975 3.39188 7.3564C3.39188 8.52306 4.33764 9.46882 5.50429 9.46882Z" fill="black"/>
<path opacity="0.26" d="M5.08381 9.99741C6.25047 9.99741 7.19623 9.05165 7.19623 7.885C7.19623 6.71834 6.25047 5.77258 5.08381 5.77258C3.91716 5.77258 2.9714 6.71834 2.9714 7.885C2.9714 9.05165 3.91716 9.99741 5.08381 9.99741Z" fill="black"/>
<path opacity="0.27" d="M4.68535 10.548C5.85201 10.548 6.79777 9.60228 6.79777 8.43563C6.79777 7.26897 5.85201 6.32321 4.68535 6.32321C3.5187 6.32321 2.57294 7.26897 2.57294 8.43563C2.57294 9.60228 3.5187 10.548 4.68535 10.548Z" fill="black"/>
<path opacity="0.28" d="M4.31093 11.1207C5.47758 11.1207 6.42334 10.1749 6.42334 9.00829C6.42334 7.84163 5.47758 6.89587 4.31093 6.89587C3.14427 6.89587 2.19851 7.84163 2.19851 9.00829C2.19851 10.1749 3.14427 11.1207 4.31093 11.1207Z" fill="black"/>
<path opacity="0.29" d="M3.96253 11.7114C5.12919 11.7114 6.07494 10.7656 6.07494 9.59899C6.07494 8.43233 5.12919 7.48657 3.96253 7.48657C2.79588 7.48657 1.85012 8.43233 1.85012 9.59899C1.85012 10.7656 2.79588 11.7114 3.96253 11.7114Z" fill="black"/>
<path opacity="0.3" d="M3.64016 12.3241C4.80681 12.3241 5.75257 11.3783 5.75257 10.2117C5.75257 9.045 4.80681 8.09924 3.64016 8.09924C2.4735 8.09924 1.52774 9.045 1.52774 10.2117C1.52774 11.3783 2.4735 12.3241 3.64016 12.3241Z" fill="black"/>
<path opacity="0.31" d="M3.34582 12.9568C4.51248 12.9568 5.45824 12.0111 5.45824 10.8444C5.45824 9.67775 4.51248 8.73199 3.34582 8.73199C2.17917 8.73199 1.23341 9.67775 1.23341 10.8444C1.23341 12.0111 2.17917 12.9568 3.34582 12.9568Z" fill="black"/>
<path opacity="0.32" d="M3.07952 13.6055C4.24617 13.6055 5.19193 12.6598 5.19193 11.4931C5.19193 10.3265 4.24617 9.38071 3.07952 9.38071C1.91287 9.38071 0.967106 10.3265 0.967106 11.4931C0.967106 12.6598 1.91287 13.6055 3.07952 13.6055Z" fill="black"/>
<path opacity="0.33" d="M2.84325 14.2743C4.0099 14.2743 4.95566 13.3286 4.95566 12.1619C4.95566 10.9953 4.0099 10.0495 2.84325 10.0495C1.67659 10.0495 0.730835 10.9953 0.730835 12.1619C0.730835 13.3286 1.67659 14.2743 2.84325 14.2743Z" fill="black"/>
<path opacity="0.34" d="M2.63501 14.9611C3.80166 14.9611 4.74742 14.0153 4.74742 12.8487C4.74742 11.682 3.80166 10.7363 2.63501 10.7363C1.46835 10.7363 0.522594 11.682 0.522594 12.8487C0.522594 14.0153 1.46835 14.9611 2.63501 14.9611Z" fill="black"/>
<path opacity="0.35" d="M2.46282 15.6519C3.62947 15.6519 4.57523 14.7061 4.57523 13.5395C4.57523 12.3728 3.62947 11.4271 2.46282 11.4271C1.29616 11.4271 0.350403 12.3728 0.350403 13.5395C0.350403 14.7061 1.29616 15.6519 2.46282 15.6519Z" fill="black"/>
<path opacity="0.36" d="M2.32666 16.3427C3.49331 16.3427 4.43907 15.3969 4.43907 14.2303C4.43907 13.0636 3.49331 12.1179 2.32666 12.1179C1.16 12.1179 0.214245 13.0636 0.214245 14.2303C0.214245 15.3969 1.16 16.3427 2.32666 16.3427Z" fill="black"/>
<path opacity="0.37" d="M2.22254 17.0335C3.38919 17.0335 4.33495 16.0877 4.33495 14.9211C4.33495 13.7544 3.38919 12.8087 2.22254 12.8087C1.05589 12.8087 0.110126 13.7544 0.110126 14.9211C0.110126 16.0877 1.05589 17.0335 2.22254 17.0335Z" fill="black"/>
<path opacity="0.38" d="M2.15246 17.7242C3.31912 17.7242 4.26487 16.7785 4.26487 15.6118C4.26487 14.4452 3.31912 13.4994 2.15246 13.4994C0.985807 13.4994 0.0400467 14.4452 0.0400467 15.6118C0.0400467 16.7785 0.985807 17.7242 2.15246 17.7242Z" fill="black"/>
<path opacity="0.39" d="M2.11642 18.411C3.28307 18.411 4.22883 17.4653 4.22883 16.2986C4.22883 15.132 3.28307 14.1862 2.11642 14.1862C0.949765 14.1862 0.00400543 15.132 0.00400543 16.2986C0.00400543 17.4653 0.949765 18.411 2.11642 18.411Z" fill="black"/>
<path opacity="0.4" d="M2.11241 19.0958C3.27907 19.0958 4.22483 18.1501 4.22483 16.9834C4.22483 15.8168 3.27907 14.871 2.11241 14.871C0.94576 14.871 0 15.8168 0 16.9834C0 18.1501 0.94576 19.0958 2.11241 19.0958Z" fill="black"/>
<path opacity="0.41" d="M2.14044 19.7766C3.3071 19.7766 4.25286 18.8308 4.25286 17.6642C4.25286 16.4975 3.3071 15.5518 2.14044 15.5518C0.97379 15.5518 0.0280304 16.4975 0.0280304 17.6642C0.0280304 18.8308 0.97379 19.7766 2.14044 19.7766Z" fill="black"/>
<path opacity="0.42" d="M2.20051 20.4514C3.36717 20.4514 4.31293 19.5056 4.31293 18.3389C4.31293 17.1723 3.36717 16.2265 2.20051 16.2265C1.03386 16.2265 0.0881004 17.1723 0.0881004 18.3389C0.0881004 19.5056 1.03386 20.4514 2.20051 20.4514Z" fill="black"/>
<path opacity="0.43" d="M2.29062 21.1201C3.45727 21.1201 4.40303 20.1744 4.40303 19.0077C4.40303 17.8411 3.45727 16.8953 2.29062 16.8953C1.12396 16.8953 0.178204 17.8411 0.178204 19.0077C0.178204 20.1744 1.12396 21.1201 2.29062 21.1201Z" fill="black"/>
<path opacity="0.44" d="M2.41276 21.7809C3.57941 21.7809 4.52517 20.8351 4.52517 19.6685C4.52517 18.5018 3.57941 17.5561 2.41276 17.5561C1.2461 17.5561 0.300343 18.5018 0.300343 19.6685C0.300343 20.8351 1.2461 21.7809 2.41276 21.7809Z" fill="black"/>
<path opacity="0.45" d="M2.56493 22.4336C3.73158 22.4336 4.67734 21.4879 4.67734 20.3212C4.67734 19.1546 3.73158 18.2088 2.56493 18.2088C1.39827 18.2088 0.452515 19.1546 0.452515 20.3212C0.452515 21.4879 1.39827 22.4336 2.56493 22.4336Z" fill="black"/>
<path opacity="0.46" d="M2.74514 23.0784C3.91179 23.0784 4.85755 22.1326 4.85755 20.966C4.85755 19.7993 3.91179 18.8535 2.74514 18.8535C1.57848 18.8535 0.632721 19.7993 0.632721 20.966C0.632721 22.1326 1.57848 23.0784 2.74514 23.0784Z" fill="black"/>
<path opacity="0.47" d="M2.95338 23.7131C4.12003 23.7131 5.06579 22.7673 5.06579 21.6007C5.06579 20.434 4.12003 19.4883 2.95338 19.4883C1.78672 19.4883 0.840961 20.434 0.840961 21.6007C0.840961 22.7673 1.78672 23.7131 2.95338 23.7131Z" fill="black"/>
<path opacity="0.48" d="M3.19165 24.3358C4.3583 24.3358 5.30406 23.3901 5.30406 22.2234C5.30406 21.0568 4.3583 20.111 3.19165 20.111C2.02499 20.111 1.07923 21.0568 1.07923 22.2234C1.07923 23.3901 2.02499 24.3358 3.19165 24.3358Z" fill="black"/>
<path opacity="0.49" d="M3.45795 24.9465C4.62461 24.9465 5.57037 24.0007 5.57037 22.8341C5.57037 21.6674 4.62461 20.7217 3.45795 20.7217C2.2913 20.7217 1.34554 21.6674 1.34554 22.8341C1.34554 24.0007 2.2913 24.9465 3.45795 24.9465Z" fill="black"/>
<path opacity="0.5" d="M3.75028 25.5452C4.91694 25.5452 5.8627 24.5994 5.8627 23.4328C5.8627 22.2661 4.91694 21.3204 3.75028 21.3204C2.58363 21.3204 1.63787 22.2661 1.63787 23.4328C1.63787 24.5994 2.58363 25.5452 3.75028 25.5452Z" fill="black"/>
<path opacity="0.5" d="M4.07065 26.1299C5.23731 26.1299 6.18306 25.1841 6.18306 24.0174C6.18306 22.8508 5.23731 21.905 4.07065 21.905C2.904 21.905 1.95824 22.8508 1.95824 24.0174C1.95824 25.1841 2.904 26.1299 4.07065 26.1299Z" fill="black"/>
<path opacity="0.51" d="M4.41705 26.6985C5.5837 26.6985 6.52946 25.7528 6.52946 24.5861C6.52946 23.4195 5.5837 22.4737 4.41705 22.4737C3.25039 22.4737 2.30463 23.4195 2.30463 24.5861C2.30463 25.7528 3.25039 26.6985 4.41705 26.6985Z" fill="black"/>
<path opacity="0.52" d="M4.78747 27.2511C5.95412 27.2511 6.89988 26.3054 6.89988 25.1387C6.89988 23.9721 5.95412 23.0263 4.78747 23.0263C3.62082 23.0263 2.67506 23.9721 2.67506 25.1387C2.67506 26.3054 3.62082 27.2511 4.78747 27.2511Z" fill="black"/>
<path opacity="0.53" d="M5.18392 27.7878C6.35058 27.7878 7.29634 26.842 7.29634 25.6753C7.29634 24.5087 6.35058 23.5629 5.18392 23.5629C4.01727 23.5629 3.07151 24.5087 3.07151 25.6753C3.07151 26.842 4.01727 27.7878 5.18392 27.7878Z" fill="black"/>
<path opacity="0.54" d="M5.60641 28.3063C6.77306 28.3063 7.71882 27.3606 7.71882 26.1939C7.71882 25.0273 6.77306 24.0815 5.60641 24.0815C4.43975 24.0815 3.49399 25.0273 3.49399 26.1939C3.49399 27.3606 4.43975 28.3063 5.60641 28.3063Z" fill="black"/>
<path opacity="0.55" d="M6.05091 28.8049C7.21757 28.8049 8.16333 27.8591 8.16333 26.6925C8.16333 25.5258 7.21757 24.5801 6.05091 24.5801C4.88426 24.5801 3.9385 25.5258 3.9385 26.6925C3.9385 27.8591 4.88426 28.8049 6.05091 28.8049Z" fill="black"/>
<path opacity="0.56" d="M6.51945 29.2855C7.6861 29.2855 8.63186 28.3397 8.63186 27.1731C8.63186 26.0064 7.6861 25.0606 6.51945 25.0606C5.3528 25.0606 4.40704 26.0064 4.40704 27.1731C4.40704 28.3397 5.3528 29.2855 6.51945 29.2855Z" fill="black"/>
<path opacity="0.57" d="M7.01201 29.744C8.17867 29.744 9.12443 28.7982 9.12443 27.6316C9.12443 26.4649 8.17867 25.5192 7.01201 25.5192C5.84536 25.5192 4.8996 26.4649 4.8996 27.6316C4.8996 28.7982 5.84536 29.744 7.01201 29.744Z" fill="black"/>
<path opacity="0.58" d="M7.5266 30.1805C8.69326 30.1805 9.63902 29.2348 9.63902 28.0681C9.63902 26.9014 8.69326 25.9557 7.5266 25.9557C6.35995 25.9557 5.41419 26.9014 5.41419 28.0681C5.41419 29.2348 6.35995 30.1805 7.5266 30.1805Z" fill="black"/>
<path opacity="0.59" d="M8.06321 30.595C9.22987 30.595 10.1756 29.6492 10.1756 28.4826C10.1756 27.3159 9.22987 26.3701 8.06321 26.3701C6.89656 26.3701 5.9508 27.3159 5.9508 28.4826C5.9508 29.6492 6.89656 30.595 8.06321 30.595Z" fill="black"/>
<path opacity="0.6" d="M8.61985 30.9834C9.7865 30.9834 10.7323 30.0376 10.7323 28.871C10.7323 27.7043 9.7865 26.7586 8.61985 26.7586C7.45319 26.7586 6.50743 27.7043 6.50743 28.871C6.50743 30.0376 7.45319 30.9834 8.61985 30.9834Z" fill="black"/>
<path opacity="0.61" d="M9.19851 31.3498C10.3652 31.3498 11.3109 30.4041 11.3109 29.2374C11.3109 28.0708 10.3652 27.125 9.19851 27.125C8.03186 27.125 7.0861 28.0708 7.0861 29.2374C7.0861 30.4041 8.03186 31.3498 9.19851 31.3498Z" fill="black"/>
<path opacity="0.62" d="M9.79719 31.6902C10.9638 31.6902 11.9096 30.7444 11.9096 29.5778C11.9096 28.4111 10.9638 27.4654 9.79719 27.4654C8.63054 27.4654 7.68478 28.4111 7.68478 29.5778C7.68478 30.7444 8.63054 31.6902 9.79719 31.6902Z" fill="black"/>
<path opacity="0.63" d="M10.4159 32.0026C11.5826 32.0026 12.5283 31.0568 12.5283 29.8902C12.5283 28.7235 11.5826 27.7777 10.4159 27.7777C9.24925 27.7777 8.30349 28.7235 8.30349 29.8902C8.30349 31.0568 9.24925 32.0026 10.4159 32.0026Z" fill="black"/>
<path opacity="0.64" d="M11.0546 32.2889C12.2213 32.2889 13.167 31.3432 13.167 30.1765C13.167 29.0098 12.2213 28.0641 11.0546 28.0641C9.88798 28.0641 8.94222 29.0098 8.94222 30.1765C8.94222 31.3432 9.88798 32.2889 11.0546 32.2889Z" fill="black"/>
<path opacity="0.65" d="M11.7114 32.5432C12.8769 32.5432 13.8218 31.5983 13.8218 30.4328C13.8218 29.2673 12.8769 28.3224 11.7114 28.3224C10.5458 28.3224 9.60097 29.2673 9.60097 30.4328C9.60097 31.5983 10.5458 32.5432 11.7114 32.5432Z" fill="black"/>
<path opacity="0.66" d="M12.3862 32.7695C13.5517 32.7695 14.4966 31.8246 14.4966 30.6591C14.4966 29.4935 13.5517 28.5486 12.3862 28.5486C11.2206 28.5486 10.2757 29.4935 10.2757 30.6591C10.2757 31.8246 11.2206 32.7695 12.3862 32.7695Z" fill="black"/>
<path opacity="0.67" d="M13.0749 32.9657C14.2405 32.9657 15.1854 32.0208 15.1854 30.8553C15.1854 29.6897 14.2405 28.7448 13.0749 28.7448C11.9094 28.7448 10.9645 29.6897 10.9645 30.8553C10.9645 32.0208 11.9094 32.9657 13.0749 32.9657Z" fill="black"/>
<path opacity="0.68" d="M13.7657 33.1259C14.9313 33.1259 15.8761 32.181 15.8761 31.0154C15.8761 29.8499 14.9313 28.905 13.7657 28.905C12.6002 28.905 11.6553 29.8499 11.6553 31.0154C11.6553 32.181 12.6002 33.1259 13.7657 33.1259Z" fill="black"/>
<path opacity="0.69" d="M14.4565 33.252C15.6221 33.252 16.5669 32.3071 16.5669 31.1416C16.5669 29.9761 15.6221 29.0312 14.4565 29.0312C13.291 29.0312 12.3461 29.9761 12.3461 31.1416C12.3461 32.3071 13.291 33.252 14.4565 33.252Z" fill="black"/>
<path opacity="0.7" d="M15.1473 33.3441C16.3129 33.3441 17.2577 32.3993 17.2577 31.2337C17.2577 30.0682 16.3129 29.1233 15.1473 29.1233C13.9818 29.1233 13.0369 30.0682 13.0369 31.2337C13.0369 32.3993 13.9818 33.3441 15.1473 33.3441Z" fill="black"/>
<path opacity="0.71" d="M15.8381 33.4022C17.0037 33.4022 17.9485 32.4573 17.9485 31.2917C17.9485 30.1262 17.0037 29.1813 15.8381 29.1813C14.6726 29.1813 13.7277 30.1262 13.7277 31.2917C13.7277 32.4573 14.6726 33.4022 15.8381 33.4022Z" fill="black"/>
<path opacity="0.72" d="M16.5229 33.4282C17.6884 33.4282 18.6333 32.4833 18.6333 31.3178C18.6333 30.1522 17.6884 29.2074 16.5229 29.2074C15.3573 29.2074 14.4125 30.1522 14.4125 31.3178C14.4125 32.4833 15.3573 33.4282 16.5229 33.4282Z" fill="black"/>
<path opacity="0.73" d="M17.2077 33.4222C18.3732 33.4222 19.3181 32.4773 19.3181 31.3118C19.3181 30.1462 18.3732 29.2014 17.2077 29.2014C16.0421 29.2014 15.0973 30.1462 15.0973 31.3118C15.0973 32.4773 16.0421 33.4222 17.2077 33.4222Z" fill="black"/>
<path opacity="0.74" d="M17.8844 33.3821C19.05 33.3821 19.9948 32.4373 19.9948 31.2717C19.9948 30.1062 19.05 29.1613 17.8844 29.1613C16.7189 29.1613 15.774 30.1062 15.774 31.2717C15.774 32.4373 16.7189 33.3821 17.8844 33.3821Z" fill="black"/>
<path opacity="0.75" d="M18.5592 33.3121C19.7248 33.3121 20.6696 32.3672 20.6696 31.2017C20.6696 30.0361 19.7248 29.0912 18.5592 29.0912C17.3937 29.0912 16.4488 30.0361 16.4488 31.2017C16.4488 32.3672 17.3937 33.3121 18.5592 33.3121Z" fill="black"/>
<path opacity="0.76" d="M19.224 33.2119C20.3895 33.2119 21.3344 32.2671 21.3344 31.1015C21.3344 29.936 20.3895 28.9911 19.224 28.9911C18.0584 28.9911 17.1136 29.936 17.1136 31.1015C17.1136 32.2671 18.0584 33.2119 19.224 33.2119Z" fill="black"/>
<path opacity="0.77" d="M19.8827 33.0798C21.0483 33.0798 21.9931 32.1349 21.9931 30.9694C21.9931 29.8038 21.0483 28.859 19.8827 28.859C18.7172 28.859 17.7723 29.8038 17.7723 30.9694C17.7723 32.1349 18.7172 33.0798 19.8827 33.0798Z" fill="black"/>
<path opacity="0.78" d="M20.5335 32.9196C21.699 32.9196 22.6439 31.9748 22.6439 30.8092C22.6439 29.6437 21.699 28.6988 20.5335 28.6988C19.3679 28.6988 18.423 29.6437 18.423 30.8092C18.423 31.9748 19.3679 32.9196 20.5335 32.9196Z" fill="black"/>
<path opacity="0.79" d="M21.1742 32.7294C22.3397 32.7294 23.2846 31.7845 23.2846 30.619C23.2846 29.4534 22.3397 28.5086 21.1742 28.5086C20.0087 28.5086 19.0638 29.4534 19.0638 30.619C19.0638 31.7845 20.0087 32.7294 21.1742 32.7294Z" fill="black"/>
<path opacity="0.8" d="M21.8049 32.5092C22.9705 32.5092 23.9153 31.5643 23.9153 30.3987C23.9153 29.2332 22.9705 28.2883 21.8049 28.2883C20.6394 28.2883 19.6945 29.2332 19.6945 30.3987C19.6945 31.5643 20.6394 32.5092 21.8049 32.5092Z" fill="black"/>
<path opacity="0.81" d="M22.4256 32.2628C23.5912 32.2628 24.536 31.318 24.536 30.1524C24.536 28.9869 23.5912 28.042 22.4256 28.042C21.2601 28.042 20.3152 28.9869 20.3152 30.1524C20.3152 31.318 21.2601 32.2628 22.4256 32.2628Z" fill="black"/>
<path opacity="0.82" d="M23.0323 31.9886C24.1979 31.9886 25.1427 31.0437 25.1427 29.8781C25.1427 28.7126 24.1979 27.7677 23.0323 27.7677C21.8668 27.7677 20.9219 28.7126 20.9219 29.8781C20.9219 31.0437 21.8668 31.9886 23.0323 31.9886Z" fill="black"/>
<path opacity="0.83" d="M23.625 31.6862C24.7905 31.6862 25.7354 30.7413 25.7354 29.5758C25.7354 28.4102 24.7905 27.4654 23.625 27.4654C22.4595 27.4654 21.5146 28.4102 21.5146 29.5758C21.5146 30.7413 22.4595 31.6862 23.625 31.6862Z" fill="black"/>
<path opacity="0.84" d="M24.2037 31.3578C25.3692 31.3578 26.3141 30.413 26.3141 29.2474C26.3141 28.0819 25.3692 27.137 24.2037 27.137C23.0381 27.137 22.0933 28.0819 22.0933 29.2474C22.0933 30.413 23.0381 31.3578 24.2037 31.3578Z" fill="black"/>
<path opacity="0.85" d="M24.7683 31.0034C25.9339 31.0034 26.8787 30.0586 26.8787 28.893C26.8787 27.7275 25.9339 26.7826 24.7683 26.7826C23.6028 26.7826 22.6579 27.7275 22.6579 28.893C22.6579 30.0586 23.6028 31.0034 24.7683 31.0034Z" fill="black"/>
<path opacity="0.86" d="M25.3149 30.623C26.4805 30.623 27.4253 29.6781 27.4253 28.5126C27.4253 27.347 26.4805 26.4022 25.3149 26.4022C24.1494 26.4022 23.2045 27.347 23.2045 28.5126C23.2045 29.6781 24.1494 30.623 25.3149 30.623Z" fill="black"/>
<path opacity="0.87" d="M25.8455 30.2185C27.0111 30.2185 27.9559 29.2737 27.9559 28.1081C27.9559 26.9426 27.0111 25.9977 25.8455 25.9977C24.68 25.9977 23.7351 26.9426 23.7351 28.1081C23.7351 29.2737 24.68 30.2185 25.8455 30.2185Z" fill="black"/>
<path opacity="0.88" d="M26.3581 29.788C27.5237 29.788 28.4685 28.8432 28.4685 27.6776C28.4685 26.5121 27.5237 25.5672 26.3581 25.5672C25.1926 25.5672 24.2477 26.5121 24.2477 27.6776C24.2477 28.8432 25.1926 29.788 26.3581 29.788Z" fill="black"/>
<path opacity="0.89" d="M26.8507 29.3355C28.0162 29.3355 28.9611 28.3907 28.9611 27.2251C28.9611 26.0596 28.0162 25.1147 26.8507 25.1147C25.6851 25.1147 24.7403 26.0596 24.7403 27.2251C24.7403 28.3907 25.6851 29.3355 26.8507 29.3355Z" fill="black"/>
<path opacity="0.9" d="M27.3232 28.859C28.4888 28.859 29.4336 27.9141 29.4336 26.7486C29.4336 25.583 28.4888 24.6382 27.3232 24.6382C26.1577 24.6382 25.2128 25.583 25.2128 26.7486C25.2128 27.9141 26.1577 28.859 27.3232 28.859Z" fill="black"/>
<path opacity="0.91" d="M27.7757 28.3584C28.9413 28.3584 29.8862 27.4135 29.8862 26.248C29.8862 25.0824 28.9413 24.1376 27.7757 24.1376C26.6102 24.1376 25.6653 25.0824 25.6653 26.248C25.6653 27.4135 26.6102 28.3584 27.7757 28.3584Z" fill="black"/>
<path opacity="0.92" d="M28.2042 27.8378C29.3698 27.8378 30.3146 26.893 30.3146 25.7274C30.3146 24.5619 29.3698 23.617 28.2042 23.617C27.0387 23.617 26.0938 24.5619 26.0938 25.7274C26.0938 26.893 27.0387 27.8378 28.2042 27.8378Z" fill="black"/>
<path opacity="0.93" d="M28.6107 27.2932C29.7762 27.2932 30.7211 26.3483 30.7211 25.1828C30.7211 24.0172 29.7762 23.0724 28.6107 23.0724C27.4451 23.0724 26.5003 24.0172 26.5003 25.1828C26.5003 26.3483 27.4451 27.2932 28.6107 27.2932Z" fill="black"/>
<path opacity="0.94" d="M28.9931 26.7285C30.1587 26.7285 31.1035 25.7837 31.1035 24.6181C31.1035 23.4526 30.1587 22.5077 28.9931 22.5077C27.8276 22.5077 26.8827 23.4526 26.8827 24.6181C26.8827 25.7837 27.8276 26.7285 28.9931 26.7285Z" fill="black"/>
<path opacity="0.95" d="M29.3495 26.1439C30.5151 26.1439 31.46 25.199 31.46 24.0334C31.46 22.8679 30.5151 21.923 29.3495 21.923C28.184 21.923 27.2391 22.8679 27.2391 24.0334C27.2391 25.199 28.184 26.1439 29.3495 26.1439Z" fill="black"/>
<path opacity="0.96" d="M29.6799 25.5392C30.8455 25.5392 31.7903 24.5943 31.7903 23.4288C31.7903 22.2632 30.8455 21.3184 29.6799 21.3184C28.5144 21.3184 27.5695 22.2632 27.5695 23.4288C27.5695 24.5943 28.5144 25.5392 29.6799 25.5392Z" fill="black"/>
<path opacity="0.97" d="M29.9843 24.9125C31.1498 24.9125 32.0947 23.9676 32.0947 22.8021C32.0947 21.6365 31.1498 20.6917 29.9843 20.6917C28.8187 20.6917 27.8739 21.6365 27.8739 22.8021C27.8739 23.9676 28.8187 24.9125 29.9843 24.9125Z" fill="black"/>
<path opacity="0.98" d="M30.2606 24.2697C31.4261 24.2697 32.371 23.3248 32.371 22.1593C32.371 20.9938 31.4261 20.0489 30.2606 20.0489C29.095 20.0489 28.1502 20.9938 28.1502 22.1593C28.1502 23.3248 29.095 24.2697 30.2606 24.2697Z" fill="black"/>
<path opacity="0.99" d="M30.5069 23.607C31.6724 23.607 32.6173 22.6621 32.6173 21.4966C32.6173 20.331 31.6724 19.3861 30.5069 19.3861C29.3413 19.3861 28.3965 20.331 28.3965 21.4966C28.3965 22.6621 29.3413 23.607 30.5069 23.607Z" fill="black"/>
<path d="M30.7251 22.9262C31.8907 22.9262 32.8355 21.9813 32.8355 20.8158C32.8355 19.6502 31.8907 18.7054 30.7251 18.7054C29.5596 18.7054 28.6147 19.6502 28.6147 20.8158C28.6147 21.9813 29.5596 22.9262 30.7251 22.9262Z" fill="black"/>
<path d="M12.0478 17.7162H13.4614V21.3023H11.6894V19.2079H6.52145V12.4742H8.34954V17.7162H10.2197V12.4742H12.0478V17.7162Z" fill="black"/>
<path d="M19.222 14.0501C19.222 14.9364 18.694 15.4704 17.6381 15.6519V15.6899C18.2455 15.742 18.704 15.9049 19.0137 16.1785C19.1682 16.3165 19.2901 16.487 19.3708 16.6778C19.4515 16.8685 19.4888 17.0748 19.4803 17.2818C19.4868 17.6649 19.368 18.0396 19.1419 18.349C18.8904 18.6735 18.5503 18.9183 18.1627 19.0538C17.6769 19.2282 17.1631 19.3117 16.647 19.3001C15.5791 19.3001 14.7242 19.1786 14.0821 18.9357V17.3699C14.4001 17.5205 14.7368 17.6283 15.0832 17.6902C15.444 17.7672 15.8116 17.8081 16.1805 17.8124C16.5567 17.8357 16.9336 17.7811 17.2877 17.6522C17.3902 17.6053 17.4761 17.5286 17.5343 17.4322C17.5925 17.3358 17.6203 17.224 17.6141 17.1116C17.6141 16.6617 17.0982 16.4361 16.0664 16.4348H15.2654V14.9611H15.9742C16.2535 14.966 16.5327 14.9486 16.8092 14.9091C16.9683 14.8902 17.12 14.8309 17.2497 14.7369C17.2979 14.6907 17.3353 14.6344 17.3591 14.5721C17.383 14.5098 17.3928 14.443 17.3879 14.3764C17.3879 14.0401 17.0635 13.8699 16.4168 13.8699C15.8433 13.8579 15.2801 14.0222 14.8029 14.3404L14.04 13.087C14.4165 12.8396 14.8302 12.6544 15.2654 12.5383C15.7568 12.4233 16.2606 12.3695 16.7652 12.3782C17.3915 12.3476 18.0123 12.5082 18.5452 12.8387C18.7509 12.9644 18.9206 13.141 19.0381 13.3514C19.1556 13.5618 19.2169 13.799 19.216 14.0401" fill="black"/>
<path d="M23.639 13.8698C23.4385 13.8636 23.2398 13.9093 23.0623 14.0026C22.8847 14.096 22.7344 14.2337 22.6259 14.4024C22.3609 14.8436 22.2346 15.3543 22.2634 15.8681C22.2634 17.1629 22.756 17.811 23.7411 17.8123C24.0339 17.8128 24.3253 17.771 24.6061 17.6882C24.8922 17.6029 25.1736 17.5027 25.4491 17.3879V18.9256C24.8473 19.1837 24.1976 19.3113 23.5429 19.3C22.5277 19.3 21.7408 19.0057 21.2062 18.415C20.6716 17.8244 20.3933 16.9734 20.3933 15.8601C20.382 15.2246 20.5191 14.5952 20.7938 14.022C21.0392 13.5157 21.4313 13.095 21.919 12.8146C22.4509 12.5205 23.0515 12.3733 23.659 12.3881C24.3813 12.3875 25.0945 12.5497 25.7454 12.8627L25.1868 14.2943C24.9444 14.1804 24.6949 14.0821 24.4399 14C24.1809 13.9182 23.9106 13.8777 23.639 13.8798" fill="black"/>
<path d="M27.8899 15.796H26.9868V13.2852H26.2059V12.4843H28.6728V13.2852H27.8899V15.796ZM30.5609 15.796L29.9042 13.4454H29.8621C29.8825 13.6135 29.8932 13.7826 29.8942 13.9519V15.796H29.0051V12.4742H30.3267L30.9574 14.6768L31.6482 12.4742H32.9196V15.796H32.0206V13.9519C32.0186 13.7825 32.0294 13.6132 32.0526 13.4454H32.0126L31.3158 15.796H30.5609Z" fill="black"/>
</svg>
