<svg width="568.261719" height="85.937500" viewBox="0 0 568.262 85.9375" fill="none" xmlns="http://www.w3.org/2000/svg" xmlns:xlink="http://www.w3.org/1999/xlink">
	<desc>
			Created with Pixso.
	</desc>
	<defs/>
	<path id="ebeelera" d="M318.26 80.81Q324.65 80.81 331.15 83.64L331.15 70.6Q329.15 69.72 326.31 69.72Q326.1 69.72 325.89 69.73Q322.54 69.82 319.23 71.43Q329.05 52 329.05 25.83Q329.05 11.62 325.73 0Q301.07 2.73 293.84 2.73Q292.43 2.73 292.13 2.63Q291.79 8.93 293.65 10.59Q297.65 10.88 299.31 11.47Q300.65 11.99 301.39 12.97Q301.83 13.55 302.05 14.3Q305.76 27.63 305.76 42.13Q305.76 58.74 299.31 84.71Q299.12 85.47 299.35 85.63Q299.35 85.64 299.36 85.64Q299.56 85.74 300.24 85.4Q309.71 80.81 318.26 80.81ZM147.5 51.7Q147.89 49.46 147.89 47.6Q147.89 40.61 144.68 35.72Q144.38 35.26 144.04 34.81Q143.11 33.58 141.99 32.57Q136.73 27.83 127.19 27.83Q124.21 27.83 121.19 28.22Q114.74 29.1 109.96 31.88Q106.34 33.93 103.41 37.35L99.6 42.13Q100.16 34.84 101.64 27.74Q104.18 15.59 109.42 4Q71.58 0.97 68.89 0.24Q68.89 0.34 68.79 1.07Q68.7 1.8 68.7 2.53Q68.7 6.08 69.87 6.52Q69.89 6.53 69.92 6.54Q72.94 7.17 74.51 7.42Q77.01 7.87 78.06 9.36Q78.8 10.42 78.8 12.01Q78.8 48.14 85.4 72.31Q81.49 70.41 77.92 70.41Q75.78 70.41 74.21 71.14L73.92 82.51Q76.85 80.02 83.49 80.02Q94.14 80.02 105.22 85.3Q102.73 78.36 102.73 76.36Q102.73 76.07 102.78 75.92Q110.69 80.61 122.7 80.61Q125.66 80.61 128.35 79.77Q134.56 77.85 139.4 71.48Q145.41 63.57 147.5 51.7ZM560.79 79.1Q565.96 79.1 568.26 80.71L566.89 67.33Q564.89 66.79 562.54 66.79Q558.16 66.79 554.96 68.74Q554.92 68.77 554.88 68.79Q558.88 58.59 558.88 42.91Q558.88 41.06 558.74 37.59Q558.59 34.13 558.59 32.51L558.59 32.42Q558.59 30.46 565.77 28.02Q566.35 27.44 566.35 24.9Q566.35 24.28 566.32 23.67Q566.18 21.17 565.47 18.7Q556.29 22.07 532.27 25.73Q534.18 28.71 535.69 33.44Q537.06 37.89 537.06 40.33Q526.19 29.78 514.77 29.14Q514.02 29.1 513.28 29.1Q507.4 29.1 502.63 31.39Q498.23 33.5 494.77 37.54Q488.77 44.67 486.96 55.61Q486.08 61.13 486.08 65.72Q486.08 74.51 490.43 78.75Q495.26 83.49 506.39 83.49Q510.15 83.49 515.57 82.81Q524.09 81.71 530.84 77.65Q533.09 76.29 535.15 74.6Q535.59 74.26 535.79 74.21Q535.83 74.21 535.87 74.22Q536.08 74.29 536.08 75Q536.08 77.73 534.37 85.93Q538.81 83.2 546.68 81.15Q554.54 79.1 560.79 79.1ZM485.17 48.08Q485.44 47.15 485.44 46.14Q485.44 43.21 483.69 38.91Q481.66 34.11 478.15 30.93Q471.29 24.7 458.78 24.7Q445.78 24.7 438.11 31.1Q437.57 31.55 437.06 32.03Q438.03 25.87 438.67 22.02Q427.44 29.54 417.09 29.54Q415.7 29.54 414.32 29.42Q411.48 29.17 408.69 28.41Q408.2 28.3 408 28.49Q407.86 28.62 407.86 28.9Q407.86 29.44 408.47 34Q409.08 38.57 409.08 39.3Q409.08 39.37 409.11 39.42Q409.23 39.61 409.86 39.5Q412.74 39.01 413.86 39.01Q416.94 39.01 418.55 40.23Q419.87 41.16 419.87 47.02Q419.87 52.44 418.75 62.3Q418.11 67.38 417.48 72.5Q417.46 72.71 417.42 72.9Q417.05 74.55 414.74 75.78Q414.64 75.78 408.78 78.22Q408.38 78.37 408.27 78.64Q408.21 78.8 408.25 79Q409.22 83.74 410.69 85.93Q424.3 82.45 438.12 81.12Q446.56 80.32 455.07 80.32Q458.78 80.32 460.69 80.41Q461.67 76.07 462.35 72.99Q454.44 72.46 449.26 71.43Q444.58 70.45 444.18 69.23Q439.79 55.02 439.79 48.09Q439.79 43.02 442.05 39.34Q443.54 36.92 445.99 35.1Q447.73 33.82 449.67 32.98Q453.32 31.39 457.66 31.39Q461.32 31.39 464.11 32.81Q466.55 34.08 466.55 35.2Q466.55 35.6 466.35 35.81Q466.21 35.97 465.96 36.03Q459.27 37.64 454.93 41.25Q451.57 44.04 450.27 47.58Q449.46 49.81 449.46 52.34Q449.46 53.65 450.01 54.67Q451.88 58.1 460.05 58.1Q465.86 58.1 473.04 56.2Q483.61 53.45 485.17 48.08ZM69.87 56.1Q70.06 52.73 70.06 50.24Q70.06 42.13 67.67 36.91Q67.21 35.9 66.61 34.99Q60.39 25.43 39.5 25.43Q10.76 25.43 2.93 38.23Q0 43.02 0 49.6Q0 55.46 1.69 60.77Q3.77 67.34 8.44 73.09Q12.71 78.37 18.22 81.37Q25.44 85.3 34.81 85.3Q49.16 85.3 56.2 81.49Q61.03 78.85 64.3 72.7Q65.47 70.45 65.47 68.31Q65.47 66.65 64.89 65.25Q62.76 60.11 52.88 58.2Q48.19 57.32 43.99 57.32Q37.89 57.32 34.35 59.25Q31.75 60.66 31.06 62.71Q30.81 63.47 30.81 64.3Q30.81 66.18 31.38 67.86Q32.34 70.64 34.86 72.87Q38.91 76.46 45.31 77.63Q45.85 77.81 45.89 78.07Q45.89 78.1 45.89 78.12Q45.89 78.56 44.77 79Q41.89 80.17 38.47 80.02Q35.02 79.86 32.28 78.37Q30.22 77.25 28.56 75.39Q23.48 69.67 23.48 58.1Q23.48 49.06 24.57 48.92Q24.59 48.92 24.6 48.92Q25.39 48.92 42.18 51.61Q61.08 54.68 69.38 56.54Q69.6 56.6 69.72 56.52Q69.87 56.42 69.87 56.1ZM221.09 56.1Q221.28 52.73 221.28 50.24Q221.28 42.13 218.89 36.91Q218.43 35.9 217.83 34.99Q211.61 25.43 190.72 25.43Q161.98 25.43 154.15 38.23Q151.22 43.02 151.22 49.6Q151.22 55.46 152.91 60.77Q154.99 67.34 159.66 73.09Q163.93 78.37 169.44 81.37Q176.66 85.3 186.03 85.3Q200.39 85.3 207.42 81.49Q212.25 78.85 215.52 72.7Q216.69 70.45 216.69 68.31Q216.69 66.65 216.11 65.25Q213.98 60.11 204.1 58.2Q199.41 57.32 195.21 57.32Q189.11 57.32 185.57 59.25Q182.97 60.66 182.28 62.71Q182.03 63.47 182.03 64.3Q182.03 66.18 182.6 67.86Q183.56 70.64 186.08 72.87Q190.13 76.46 196.53 77.63Q197.07 77.81 197.11 78.07Q197.11 78.1 197.11 78.12Q197.11 78.56 195.99 79Q193.11 80.17 189.69 80.02Q186.24 79.86 183.5 78.37Q181.44 77.25 179.78 75.39Q174.7 69.67 174.7 58.1Q174.7 49.06 175.79 48.92Q175.81 48.92 175.83 48.92Q176.61 48.92 193.4 51.61Q212.3 54.68 220.6 56.54Q220.82 56.6 220.94 56.52Q221.09 56.42 221.09 56.1ZM293.4 56.1Q293.6 52.73 293.6 50.24Q293.6 42.13 291.21 36.91Q290.74 35.9 290.15 34.99Q283.93 25.43 263.03 25.43Q234.29 25.43 226.46 38.23Q223.53 43.02 223.53 49.6Q223.53 55.46 225.22 60.77Q227.31 67.34 231.98 73.09Q236.24 78.37 241.75 81.37Q248.98 85.3 258.35 85.3Q272.7 85.3 279.73 81.49Q284.57 78.85 287.84 72.7Q289.01 70.45 289.01 68.31Q289.01 66.65 288.43 65.25Q286.3 60.11 276.41 58.2Q271.72 57.32 267.52 57.32Q261.42 57.32 257.88 59.25Q255.29 60.66 254.59 62.71Q254.34 63.47 254.34 64.3Q254.34 66.18 254.92 67.86Q255.87 70.64 258.39 72.87Q262.45 76.46 268.84 77.63Q269.38 77.81 269.43 78.07Q269.43 78.1 269.43 78.12Q269.43 78.56 268.31 79Q265.43 80.17 262.01 80.02Q258.56 79.86 255.82 78.37Q253.75 77.25 252.1 75.39Q247.02 69.67 247.02 58.1Q247.02 49.06 248.11 48.92Q248.12 48.92 248.14 48.92Q248.92 48.92 265.72 51.61Q284.61 54.68 292.92 56.54Q293.13 56.6 293.25 56.52Q293.4 56.42 293.4 56.1ZM406.73 56.1Q406.93 52.73 406.93 50.24Q406.93 42.13 404.54 36.91Q404.08 35.9 403.48 34.99Q397.26 25.43 376.36 25.43Q347.62 25.43 339.79 38.23Q336.86 43.02 336.86 49.6Q336.86 55.46 338.55 60.77Q340.64 67.34 345.31 73.09Q349.57 78.37 355.08 81.37Q362.31 85.3 371.68 85.3Q386.03 85.3 393.06 81.49Q397.9 78.85 401.17 72.7Q402.34 70.45 402.34 68.31Q402.34 66.65 401.76 65.25Q399.63 60.11 389.74 58.2Q385.05 57.32 380.85 57.32Q374.75 57.32 371.21 59.25Q368.62 60.66 367.93 62.71Q367.67 63.47 367.67 64.3Q367.67 66.18 368.25 67.86Q369.2 70.64 371.72 72.87Q375.78 76.46 382.17 77.63Q382.71 77.81 382.76 78.07Q382.76 78.1 382.76 78.12Q382.76 78.56 381.64 79Q378.76 80.17 375.34 80.02Q371.89 79.86 369.15 78.37Q367.08 77.25 365.43 75.39Q360.35 69.67 360.35 58.1Q360.35 49.06 361.44 48.92Q361.45 48.92 361.47 48.92Q362.25 48.92 379.05 51.61Q397.94 54.68 406.25 56.54Q406.46 56.6 406.58 56.52Q406.73 56.42 406.73 56.1ZM51.22 37.96Q51.36 38.46 51.36 39.01Q51.36 40.08 50.93 40.94Q49.23 44.33 40.77 44.33Q22.39 44.33 20.76 39.1Q20.6 38.59 20.6 38.03Q20.6 37.86 20.63 37.68Q21.02 35.44 26.51 34.08Q31.54 32.81 38.37 32.81Q44.23 32.81 47.8 34.54Q50.65 35.93 51.22 37.96ZM202.44 37.96Q202.58 38.46 202.58 39.01Q202.58 40.08 202.15 40.94Q200.45 44.33 191.99 44.33Q173.61 44.33 171.98 39.1Q171.82 38.59 171.82 38.03Q171.82 37.86 171.85 37.68Q172.24 35.44 177.73 34.08Q182.76 32.81 189.6 32.81Q195.45 32.81 199.02 34.54Q201.87 35.93 202.44 37.96ZM274.76 37.96Q274.9 38.46 274.9 39.01Q274.9 40.08 274.47 40.94Q272.76 44.33 264.3 44.33Q245.93 44.33 244.3 39.1Q244.14 38.59 244.14 38.03Q244.14 37.86 244.17 37.68Q244.56 35.44 250.04 34.08Q255.07 32.81 261.91 32.81Q267.77 32.81 271.33 34.54Q274.19 35.93 274.76 37.96ZM388.09 37.96Q388.23 38.46 388.23 39.01Q388.23 40.08 387.8 40.94Q386.09 44.33 377.63 44.33Q359.26 44.33 357.63 39.1Q357.47 38.59 357.47 38.03Q357.47 37.86 357.5 37.68Q357.89 35.44 363.37 34.08Q368.4 32.81 375.24 32.81Q381.1 32.81 384.66 34.54Q387.52 35.93 388.09 37.96ZM136.81 56.2Q136.81 56.3 136.81 56.39Q136.81 56.6 136.78 56.8Q136.35 59.65 129.73 61.57Q123.58 63.33 116.5 63.33Q110.44 63.33 103.51 60.27Q96.58 57.22 96.58 54.44Q96.58 54.34 96.59 54.25Q96.81 51.92 102.46 50.12Q108.35 48.24 115.72 48.24Q121.36 48.24 126.62 49.68Q128.27 50.13 129.88 50.73Q136.6 53.23 136.81 56.2ZM539.86 53.08Q539.89 53.25 539.89 53.41Q539.89 56.93 532.66 60.69Q527.19 63.49 521.44 64.28Q519.19 64.59 516.89 64.59Q509.71 64.59 504.49 63.13Q499.17 61.61 498.72 59.19Q498.68 58.97 498.68 58.74L498.68 58.72Q498.7 55.31 506.88 51.95Q510.99 50.29 515.26 49.43Q519.77 48.53 524.46 48.53Q531.44 48.53 535.79 50Q539.56 51.25 539.86 53.08Z" fill="#000000" fill-opacity="1.000000" fill-rule="evenodd"/>
</svg>
